<svg width="385" height="360" viewBox="0 0 385 360" fill="none" xmlns="http://www.w3.org/2000/svg">
<rect width="385" height="360" rx="10" fill="white"/>
<path d="M43.75 302.119C43.108 302.119 42.5611 301.945 42.1094 301.595C41.6577 301.243 41.3125 300.733 41.0739 300.065C40.8352 299.395 40.7159 298.585 40.7159 297.636C40.7159 296.693 40.8352 295.888 41.0739 295.22C41.3153 294.55 41.6619 294.038 42.1136 293.686C42.5682 293.331 43.1136 293.153 43.75 293.153C44.3864 293.153 44.9304 293.331 45.3821 293.686C45.8366 294.038 46.1832 294.55 46.4219 295.22C46.6634 295.888 46.7841 296.693 46.7841 297.636C46.7841 298.585 46.6648 299.395 46.4261 300.065C46.1875 300.733 45.8423 301.243 45.3906 301.595C44.9389 301.945 44.392 302.119 43.75 302.119ZM43.75 301.182C44.3864 301.182 44.8807 300.875 45.233 300.261C45.5852 299.648 45.7614 298.773 45.7614 297.636C45.7614 296.881 45.6804 296.237 45.5185 295.706C45.3594 295.175 45.1293 294.77 44.8281 294.491C44.5298 294.213 44.1705 294.074 43.75 294.074C43.1193 294.074 42.6264 294.385 42.2713 295.007C41.9162 295.626 41.7386 296.503 41.7386 297.636C41.7386 298.392 41.8182 299.034 41.9773 299.562C42.1364 300.091 42.3651 300.493 42.6634 300.768C42.9645 301.044 43.3267 301.182 43.75 301.182Z" fill="#858D9D"/>
<path d="M61.3977 306.273H62.4545V312.511C62.4545 313.068 62.3523 313.541 62.1477 313.93C61.9432 314.32 61.6548 314.615 61.2827 314.817C60.9105 315.018 60.4716 315.119 59.9659 315.119C59.4886 315.119 59.0639 315.033 58.6918 314.859C58.3196 314.683 58.027 314.433 57.8139 314.109C57.6009 313.786 57.4943 313.401 57.4943 312.955H58.5341C58.5341 313.202 58.5952 313.418 58.7173 313.602C58.8423 313.784 59.0128 313.926 59.2287 314.028C59.4446 314.131 59.6903 314.182 59.9659 314.182C60.2699 314.182 60.5284 314.118 60.7415 313.99C60.9545 313.862 61.1165 313.675 61.2273 313.428C61.3409 313.178 61.3977 312.872 61.3977 312.511V306.273ZM66.3622 315.153C65.9474 315.153 65.571 315.075 65.233 314.919C64.8949 314.76 64.6264 314.531 64.4276 314.233C64.2287 313.932 64.1293 313.568 64.1293 313.142C64.1293 312.767 64.2031 312.463 64.3509 312.23C64.4986 311.994 64.696 311.81 64.9432 311.676C65.1903 311.543 65.4631 311.443 65.7614 311.378C66.0625 311.31 66.3651 311.256 66.669 311.216C67.0668 311.165 67.3892 311.126 67.6364 311.101C67.8864 311.072 68.0682 311.026 68.1818 310.96C68.2983 310.895 68.3565 310.781 68.3565 310.619V310.585C68.3565 310.165 68.2415 309.838 68.0114 309.605C67.7841 309.372 67.4389 309.256 66.9759 309.256C66.4957 309.256 66.1193 309.361 65.8466 309.571C65.5739 309.781 65.3821 310.006 65.2713 310.244L64.3168 309.903C64.4872 309.506 64.7145 309.196 64.9986 308.974C65.2855 308.75 65.598 308.594 65.9361 308.506C66.277 308.415 66.6122 308.369 66.9418 308.369C67.152 308.369 67.3935 308.395 67.6662 308.446C67.9418 308.494 68.2074 308.595 68.4631 308.749C68.7216 308.902 68.9361 309.134 69.1065 309.443C69.277 309.753 69.3622 310.168 69.3622 310.688V315H68.3565V314.114H68.3054C68.2372 314.256 68.1236 314.408 67.9645 314.57C67.8054 314.732 67.5938 314.869 67.3295 314.983C67.0653 315.097 66.7429 315.153 66.3622 315.153ZM66.5156 314.25C66.9134 314.25 67.2486 314.172 67.5213 314.016C67.7969 313.859 68.0043 313.658 68.1435 313.411C68.2855 313.163 68.3565 312.903 68.3565 312.631V311.71C68.3139 311.761 68.2202 311.808 68.0753 311.851C67.9332 311.891 67.7685 311.926 67.581 311.957C67.3963 311.986 67.2159 312.011 67.0398 312.034C66.8665 312.054 66.7259 312.071 66.6179 312.085C66.3565 312.119 66.1122 312.175 65.8849 312.251C65.6605 312.325 65.4787 312.437 65.3395 312.588C65.2031 312.736 65.1349 312.937 65.1349 313.193C65.1349 313.543 65.2642 313.807 65.5227 313.986C65.7841 314.162 66.1151 314.25 66.5156 314.25ZM72.2035 311.062V315H71.1978V308.455H72.1694V309.477H72.2546C72.408 309.145 72.641 308.878 72.9535 308.676C73.266 308.472 73.6694 308.369 74.1637 308.369C74.6069 308.369 74.9947 308.46 75.3271 308.642C75.6594 308.821 75.918 309.094 76.1026 309.46C76.2873 309.824 76.3796 310.284 76.3796 310.841V315H75.3739V310.909C75.3739 310.395 75.2404 309.994 74.9734 309.707C74.7063 309.418 74.3398 309.273 73.8739 309.273C73.5529 309.273 73.266 309.342 73.0131 309.482C72.7631 309.621 72.5657 309.824 72.4208 310.091C72.2759 310.358 72.2035 310.682 72.2035 311.062Z" fill="#858D9D"/>
<path d="M132.557 315V306.273H137.79V307.21H133.614V310.159H137.398V311.097H133.614V315H132.557ZM141.727 315.136C141.097 315.136 140.553 314.997 140.095 314.719C139.641 314.438 139.29 314.045 139.043 313.543C138.798 313.037 138.676 312.449 138.676 311.778C138.676 311.108 138.798 310.517 139.043 310.006C139.29 309.491 139.634 309.091 140.074 308.804C140.517 308.514 141.034 308.369 141.625 308.369C141.966 308.369 142.303 308.426 142.635 308.54C142.967 308.653 143.27 308.838 143.543 309.094C143.815 309.347 144.033 309.682 144.195 310.099C144.357 310.517 144.438 311.031 144.438 311.642V312.068H139.392V311.199H143.415C143.415 310.83 143.341 310.5 143.193 310.21C143.048 309.92 142.841 309.692 142.571 309.524C142.304 309.357 141.989 309.273 141.625 309.273C141.224 309.273 140.878 309.372 140.585 309.571C140.295 309.767 140.072 310.023 139.916 310.338C139.76 310.653 139.682 310.991 139.682 311.352V311.932C139.682 312.426 139.767 312.845 139.938 313.189C140.111 313.53 140.351 313.79 140.658 313.969C140.964 314.145 141.321 314.233 141.727 314.233C141.991 314.233 142.23 314.196 142.443 314.122C142.659 314.045 142.845 313.932 143.001 313.781C143.158 313.628 143.278 313.437 143.364 313.21L144.335 313.483C144.233 313.812 144.061 314.102 143.82 314.352C143.578 314.599 143.28 314.793 142.925 314.932C142.57 315.068 142.17 315.136 141.727 315.136ZM146.104 315V306.273H147.109V309.494H147.195C147.268 309.381 147.371 309.236 147.501 309.06C147.635 308.881 147.825 308.722 148.072 308.582C148.322 308.44 148.661 308.369 149.087 308.369C149.638 308.369 150.124 308.507 150.544 308.783C150.964 309.058 151.293 309.449 151.528 309.955C151.764 310.46 151.882 311.057 151.882 311.744C151.882 312.438 151.764 313.038 151.528 313.547C151.293 314.053 150.966 314.445 150.548 314.723C150.131 314.999 149.649 315.136 149.104 315.136C148.683 315.136 148.347 315.067 148.094 314.928C147.841 314.786 147.646 314.625 147.51 314.446C147.374 314.264 147.268 314.114 147.195 313.994H147.075V315H146.104ZM147.092 311.727C147.092 312.222 147.165 312.658 147.31 313.036C147.455 313.411 147.666 313.705 147.945 313.918C148.223 314.128 148.564 314.233 148.967 314.233C149.388 314.233 149.739 314.122 150.02 313.901C150.304 313.676 150.517 313.375 150.659 312.997C150.804 312.616 150.876 312.193 150.876 311.727C150.876 311.267 150.805 310.852 150.663 310.483C150.524 310.111 150.313 309.817 150.028 309.601C149.747 309.382 149.393 309.273 148.967 309.273C148.558 309.273 148.214 309.376 147.936 309.584C147.658 309.788 147.447 310.075 147.305 310.445C147.163 310.811 147.092 311.239 147.092 311.727Z" fill="#858D9D"/>
<path d="M207.057 306.273H208.318L211.284 313.517H211.386L214.352 306.273H215.614V315H214.625V308.369H214.54L211.812 315H210.858L208.131 308.369H208.045V315H207.057V306.273ZM219.522 315.153C219.108 315.153 218.731 315.075 218.393 314.919C218.055 314.76 217.787 314.531 217.588 314.233C217.389 313.932 217.289 313.568 217.289 313.142C217.289 312.767 217.363 312.463 217.511 312.23C217.659 311.994 217.856 311.81 218.103 311.676C218.35 311.543 218.623 311.443 218.922 311.378C219.223 311.31 219.525 311.256 219.829 311.216C220.227 311.165 220.549 311.126 220.797 311.101C221.047 311.072 221.228 311.026 221.342 310.96C221.458 310.895 221.517 310.781 221.517 310.619V310.585C221.517 310.165 221.402 309.838 221.172 309.605C220.944 309.372 220.599 309.256 220.136 309.256C219.656 309.256 219.279 309.361 219.007 309.571C218.734 309.781 218.542 310.006 218.431 310.244L217.477 309.903C217.647 309.506 217.875 309.196 218.159 308.974C218.446 308.75 218.758 308.594 219.096 308.506C219.437 308.415 219.772 308.369 220.102 308.369C220.312 308.369 220.554 308.395 220.826 308.446C221.102 308.494 221.368 308.595 221.623 308.749C221.882 308.902 222.096 309.134 222.267 309.443C222.437 309.753 222.522 310.168 222.522 310.688V315H221.517V314.114H221.466C221.397 314.256 221.284 314.408 221.125 314.57C220.966 314.732 220.754 314.869 220.49 314.983C220.225 315.097 219.903 315.153 219.522 315.153ZM219.676 314.25C220.074 314.25 220.409 314.172 220.681 314.016C220.957 313.859 221.164 313.658 221.304 313.411C221.446 313.163 221.517 312.903 221.517 312.631V311.71C221.474 311.761 221.38 311.808 221.235 311.851C221.093 311.891 220.929 311.926 220.741 311.957C220.556 311.986 220.376 312.011 220.2 312.034C220.027 312.054 219.886 312.071 219.778 312.085C219.517 312.119 219.272 312.175 219.045 312.251C218.821 312.325 218.639 312.437 218.5 312.588C218.363 312.736 218.295 312.937 218.295 313.193C218.295 313.543 218.424 313.807 218.683 313.986C218.944 314.162 219.275 314.25 219.676 314.25ZM224.358 315V308.455H225.33V309.443H225.398C225.517 309.119 225.733 308.857 226.045 308.655C226.358 308.453 226.71 308.352 227.102 308.352C227.176 308.352 227.268 308.354 227.379 308.357C227.49 308.359 227.574 308.364 227.631 308.369V309.392C227.597 309.384 227.518 309.371 227.396 309.354C227.277 309.334 227.151 309.324 227.017 309.324C226.699 309.324 226.415 309.391 226.165 309.524C225.918 309.655 225.722 309.837 225.577 310.07C225.435 310.3 225.364 310.562 225.364 310.858V315H224.358Z" fill="#858D9D"/>
<path d="M282.915 315H281.807L285.011 306.273H286.102L289.307 315H288.199L285.591 307.653H285.523L282.915 315ZM283.324 311.591H287.79V312.528H283.324V311.591ZM290.53 317.455V308.455H291.501V309.494H291.621C291.695 309.381 291.797 309.236 291.928 309.06C292.061 308.881 292.251 308.722 292.499 308.582C292.749 308.44 293.087 308.369 293.513 308.369C294.064 308.369 294.55 308.507 294.97 308.783C295.391 309.058 295.719 309.449 295.955 309.955C296.19 310.46 296.308 311.057 296.308 311.744C296.308 312.438 296.19 313.038 295.955 313.547C295.719 314.053 295.392 314.445 294.974 314.723C294.557 314.999 294.075 315.136 293.53 315.136C293.109 315.136 292.773 315.067 292.52 314.928C292.267 314.786 292.072 314.625 291.936 314.446C291.8 314.264 291.695 314.114 291.621 313.994H291.536V317.455H290.53ZM291.518 311.727C291.518 312.222 291.591 312.658 291.736 313.036C291.881 313.411 292.092 313.705 292.371 313.918C292.649 314.128 292.99 314.233 293.393 314.233C293.814 314.233 294.165 314.122 294.446 313.901C294.73 313.676 294.943 313.375 295.085 312.997C295.23 312.616 295.303 312.193 295.303 311.727C295.303 311.267 295.232 310.852 295.089 310.483C294.95 310.111 294.739 309.817 294.455 309.601C294.173 309.382 293.82 309.273 293.393 309.273C292.984 309.273 292.641 309.376 292.362 309.584C292.084 309.788 291.874 310.075 291.732 310.445C291.589 310.811 291.518 311.239 291.518 311.727ZM297.842 315V308.455H298.814V309.443H298.882C299.001 309.119 299.217 308.857 299.53 308.655C299.842 308.453 300.195 308.352 300.587 308.352C300.661 308.352 300.753 308.354 300.864 308.357C300.974 308.359 301.058 308.364 301.115 308.369V309.392C301.081 309.384 301.003 309.371 300.881 309.354C300.761 309.334 300.635 309.324 300.501 309.324C300.183 309.324 299.899 309.391 299.649 309.524C299.402 309.655 299.206 309.837 299.061 310.07C298.919 310.3 298.848 310.562 298.848 310.858V315H297.842Z" fill="#858D9D"/>
<path d="M356.057 306.273H357.318L360.284 313.517H360.386L363.352 306.273H364.614V315H363.625V308.369H363.54L360.812 315H359.858L357.131 308.369H357.045V315H356.057V306.273ZM368.522 315.153C368.108 315.153 367.731 315.075 367.393 314.919C367.055 314.76 366.787 314.531 366.588 314.233C366.389 313.932 366.289 313.568 366.289 313.142C366.289 312.767 366.363 312.463 366.511 312.23C366.659 311.994 366.856 311.81 367.103 311.676C367.35 311.543 367.623 311.443 367.922 311.378C368.223 311.31 368.525 311.256 368.829 311.216C369.227 311.165 369.549 311.126 369.797 311.101C370.047 311.072 370.228 311.026 370.342 310.96C370.458 310.895 370.517 310.781 370.517 310.619V310.585C370.517 310.165 370.402 309.838 370.172 309.605C369.944 309.372 369.599 309.256 369.136 309.256C368.656 309.256 368.279 309.361 368.007 309.571C367.734 309.781 367.542 310.006 367.431 310.244L366.477 309.903C366.647 309.506 366.875 309.196 367.159 308.974C367.446 308.75 367.758 308.594 368.096 308.506C368.437 308.415 368.772 308.369 369.102 308.369C369.312 308.369 369.554 308.395 369.826 308.446C370.102 308.494 370.368 308.595 370.623 308.749C370.882 308.902 371.096 309.134 371.267 309.443C371.437 309.753 371.522 310.168 371.522 310.688V315H370.517V314.114H370.466C370.397 314.256 370.284 314.408 370.125 314.57C369.966 314.732 369.754 314.869 369.49 314.983C369.225 315.097 368.903 315.153 368.522 315.153ZM368.676 314.25C369.074 314.25 369.409 314.172 369.681 314.016C369.957 313.859 370.164 313.658 370.304 313.411C370.446 313.163 370.517 312.903 370.517 312.631V311.71C370.474 311.761 370.38 311.808 370.235 311.851C370.093 311.891 369.929 311.926 369.741 311.957C369.556 311.986 369.376 312.011 369.2 312.034C369.027 312.054 368.886 312.071 368.778 312.085C368.517 312.119 368.272 312.175 368.045 312.251C367.821 312.325 367.639 312.437 367.5 312.588C367.363 312.736 367.295 312.937 367.295 313.193C367.295 313.543 367.424 313.807 367.683 313.986C367.944 314.162 368.275 314.25 368.676 314.25ZM373.771 317.455C373.601 317.455 373.449 317.44 373.315 317.412C373.182 317.386 373.089 317.361 373.038 317.335L373.294 316.449C373.538 316.511 373.754 316.534 373.942 316.517C374.129 316.5 374.295 316.416 374.44 316.266C374.588 316.118 374.723 315.878 374.845 315.545L375.033 315.034L372.612 308.455H373.703L375.51 313.67H375.578L377.385 308.455H378.476L375.697 315.955C375.572 316.293 375.418 316.572 375.233 316.794C375.048 317.018 374.834 317.185 374.589 317.293C374.348 317.401 374.075 317.455 373.771 317.455Z" fill="#858D9D"/>
<path d="M17.6989 119.21V118.341L21.5341 112.273H22.1648V113.619H21.7386L18.8409 118.205V118.273H24.0057V119.21H17.6989ZM21.8068 121V118.946V118.541V112.273H22.8125V121H21.8068ZM28.4492 121.119C27.8072 121.119 27.2603 120.945 26.8086 120.595C26.3569 120.243 26.0117 119.733 25.7731 119.065C25.5344 118.395 25.4151 117.585 25.4151 116.636C25.4151 115.693 25.5344 114.888 25.7731 114.22C26.0146 113.55 26.3612 113.038 26.8129 112.686C27.2674 112.331 27.8129 112.153 28.4492 112.153C29.0856 112.153 29.6296 112.331 30.0813 112.686C30.5359 113.038 30.8825 113.55 31.1211 114.22C31.3626 114.888 31.4833 115.693 31.4833 116.636C31.4833 117.585 31.364 118.395 31.1254 119.065C30.8867 119.733 30.5415 120.243 30.0898 120.595C29.6381 120.945 29.0913 121.119 28.4492 121.119ZM28.4492 120.182C29.0856 120.182 29.5799 119.875 29.9322 119.261C30.2844 118.648 30.4606 117.773 30.4606 116.636C30.4606 115.881 30.3796 115.237 30.2177 114.706C30.0586 114.175 29.8285 113.77 29.5273 113.491C29.229 113.213 28.8697 113.074 28.4492 113.074C27.8185 113.074 27.3256 113.385 26.9705 114.007C26.6154 114.626 26.4379 115.503 26.4379 116.636C26.4379 117.392 26.5174 118.034 26.6765 118.562C26.8356 119.091 27.0643 119.493 27.3626 119.768C27.6637 120.044 28.0259 120.182 28.4492 120.182ZM35.9492 121.119C35.3072 121.119 34.7603 120.945 34.3086 120.595C33.8569 120.243 33.5117 119.733 33.2731 119.065C33.0344 118.395 32.9151 117.585 32.9151 116.636C32.9151 115.693 33.0344 114.888 33.2731 114.22C33.5146 113.55 33.8612 113.038 34.3129 112.686C34.7674 112.331 35.3129 112.153 35.9492 112.153C36.5856 112.153 37.1296 112.331 37.5813 112.686C38.0359 113.038 38.3825 113.55 38.6211 114.22C38.8626 114.888 38.9833 115.693 38.9833 116.636C38.9833 117.585 38.864 118.395 38.6254 119.065C38.3867 119.733 38.0415 120.243 37.5898 120.595C37.1381 120.945 36.5913 121.119 35.9492 121.119ZM35.9492 120.182C36.5856 120.182 37.0799 119.875 37.4322 119.261C37.7844 118.648 37.9606 117.773 37.9606 116.636C37.9606 115.881 37.8796 115.237 37.7177 114.706C37.5586 114.175 37.3285 113.77 37.0273 113.491C36.729 113.213 36.3697 113.074 35.9492 113.074C35.3185 113.074 34.8256 113.385 34.4705 114.007C34.1154 114.626 33.9379 115.503 33.9379 116.636C33.9379 117.392 34.0174 118.034 34.1765 118.562C34.3356 119.091 34.5643 119.493 34.8626 119.768C35.1637 120.044 35.5259 120.182 35.9492 120.182ZM43.4492 121.119C42.8072 121.119 42.2603 120.945 41.8086 120.595C41.3569 120.243 41.0117 119.733 40.7731 119.065C40.5344 118.395 40.4151 117.585 40.4151 116.636C40.4151 115.693 40.5344 114.888 40.7731 114.22C41.0146 113.55 41.3612 113.038 41.8129 112.686C42.2674 112.331 42.8129 112.153 43.4492 112.153C44.0856 112.153 44.6296 112.331 45.0813 112.686C45.5359 113.038 45.8825 113.55 46.1211 114.22C46.3626 114.888 46.4833 115.693 46.4833 116.636C46.4833 117.585 46.364 118.395 46.1254 119.065C45.8867 119.733 45.5415 120.243 45.0898 120.595C44.6381 120.945 44.0913 121.119 43.4492 121.119ZM43.4492 120.182C44.0856 120.182 44.5799 119.875 44.9322 119.261C45.2844 118.648 45.4606 117.773 45.4606 116.636C45.4606 115.881 45.3796 115.237 45.2177 114.706C45.0586 114.175 44.8285 113.77 44.5273 113.491C44.229 113.213 43.8697 113.074 43.4492 113.074C42.8185 113.074 42.3256 113.385 41.9705 114.007C41.6154 114.626 41.4379 115.503 41.4379 116.636C41.4379 117.392 41.5174 118.034 41.6765 118.562C41.8356 119.091 42.0643 119.493 42.3626 119.768C42.6637 120.044 43.0259 120.182 43.4492 120.182Z" fill="#858D9D"/>
<path d="M20.8523 165.119C20.2898 165.119 19.7884 165.023 19.348 164.83C18.9105 164.636 18.5625 164.368 18.304 164.024C18.0483 163.678 17.9091 163.276 17.8864 162.818H18.9602C18.983 163.099 19.0795 163.342 19.25 163.547C19.4205 163.749 19.6435 163.905 19.919 164.016C20.1946 164.126 20.5 164.182 20.8352 164.182C21.2102 164.182 21.5426 164.116 21.8324 163.986C22.1222 163.855 22.3494 163.673 22.5142 163.44C22.679 163.207 22.7614 162.938 22.7614 162.631C22.7614 162.31 22.6818 162.027 22.5227 161.783C22.3636 161.536 22.1307 161.342 21.8239 161.203C21.517 161.064 21.142 160.994 20.6989 160.994H20V160.057H20.6989C21.0455 160.057 21.3494 159.994 21.6108 159.869C21.875 159.744 22.081 159.568 22.2287 159.341C22.3793 159.114 22.4545 158.847 22.4545 158.54C22.4545 158.244 22.3892 157.987 22.2585 157.768C22.1278 157.55 21.9432 157.379 21.7045 157.257C21.4688 157.135 21.1903 157.074 20.8693 157.074C20.5682 157.074 20.2841 157.129 20.017 157.24C19.7528 157.348 19.5369 157.506 19.3693 157.713C19.2017 157.918 19.1108 158.165 19.0966 158.455H18.0739C18.0909 157.997 18.2287 157.597 18.4872 157.253C18.7457 156.906 19.0838 156.636 19.5014 156.443C19.9219 156.25 20.3835 156.153 20.8864 156.153C21.4261 156.153 21.8892 156.263 22.2756 156.482C22.6619 156.697 22.9588 156.983 23.1662 157.338C23.3736 157.693 23.4773 158.077 23.4773 158.489C23.4773 158.98 23.348 159.399 23.0895 159.746C22.8338 160.092 22.4858 160.332 22.0455 160.466V160.534C22.5966 160.625 23.027 160.859 23.3366 161.237C23.6463 161.612 23.8011 162.077 23.8011 162.631C23.8011 163.105 23.6719 163.531 23.4134 163.909C23.1577 164.284 22.8082 164.58 22.3651 164.795C21.9219 165.011 21.4176 165.119 20.8523 165.119ZM28.3906 165.119C27.7486 165.119 27.2017 164.945 26.75 164.595C26.2983 164.243 25.9531 163.733 25.7145 163.065C25.4759 162.395 25.3565 161.585 25.3565 160.636C25.3565 159.693 25.4759 158.888 25.7145 158.22C25.956 157.55 26.3026 157.038 26.7543 156.686C27.2088 156.331 27.7543 156.153 28.3906 156.153C29.027 156.153 29.571 156.331 30.0227 156.686C30.4773 157.038 30.8239 157.55 31.0625 158.22C31.304 158.888 31.4247 159.693 31.4247 160.636C31.4247 161.585 31.3054 162.395 31.0668 163.065C30.8281 163.733 30.483 164.243 30.0312 164.595C29.5795 164.945 29.0327 165.119 28.3906 165.119ZM28.3906 164.182C29.027 164.182 29.5213 163.875 29.8736 163.261C30.2259 162.648 30.402 161.773 30.402 160.636C30.402 159.881 30.321 159.237 30.1591 158.706C30 158.175 29.7699 157.77 29.4688 157.491C29.1705 157.213 28.8111 157.074 28.3906 157.074C27.7599 157.074 27.267 157.385 26.9119 158.007C26.5568 158.626 26.3793 159.503 26.3793 160.636C26.3793 161.392 26.4588 162.034 26.6179 162.562C26.777 163.091 27.0057 163.493 27.304 163.768C27.6051 164.044 27.9673 164.182 28.3906 164.182ZM35.8906 165.119C35.2486 165.119 34.7017 164.945 34.25 164.595C33.7983 164.243 33.4531 163.733 33.2145 163.065C32.9759 162.395 32.8565 161.585 32.8565 160.636C32.8565 159.693 32.9759 158.888 33.2145 158.22C33.456 157.55 33.8026 157.038 34.2543 156.686C34.7088 156.331 35.2543 156.153 35.8906 156.153C36.527 156.153 37.071 156.331 37.5227 156.686C37.9773 157.038 38.3239 157.55 38.5625 158.22C38.804 158.888 38.9247 159.693 38.9247 160.636C38.9247 161.585 38.8054 162.395 38.5668 163.065C38.3281 163.733 37.983 164.243 37.5312 164.595C37.0795 164.945 36.5327 165.119 35.8906 165.119ZM35.8906 164.182C36.527 164.182 37.0213 163.875 37.3736 163.261C37.7259 162.648 37.902 161.773 37.902 160.636C37.902 159.881 37.821 159.237 37.6591 158.706C37.5 158.175 37.2699 157.77 36.9688 157.491C36.6705 157.213 36.3111 157.074 35.8906 157.074C35.2599 157.074 34.767 157.385 34.4119 158.007C34.0568 158.626 33.8793 159.503 33.8793 160.636C33.8793 161.392 33.9588 162.034 34.1179 162.562C34.277 163.091 34.5057 163.493 34.804 163.768C35.1051 164.044 35.4673 164.182 35.8906 164.182ZM43.3906 165.119C42.7486 165.119 42.2017 164.945 41.75 164.595C41.2983 164.243 40.9531 163.733 40.7145 163.065C40.4759 162.395 40.3565 161.585 40.3565 160.636C40.3565 159.693 40.4759 158.888 40.7145 158.22C40.956 157.55 41.3026 157.038 41.7543 156.686C42.2088 156.331 42.7543 156.153 43.3906 156.153C44.027 156.153 44.571 156.331 45.0227 156.686C45.4773 157.038 45.8239 157.55 46.0625 158.22C46.304 158.888 46.4247 159.693 46.4247 160.636C46.4247 161.585 46.3054 162.395 46.0668 163.065C45.8281 163.733 45.483 164.243 45.0312 164.595C44.5795 164.945 44.0327 165.119 43.3906 165.119ZM43.3906 164.182C44.027 164.182 44.5213 163.875 44.8736 163.261C45.2259 162.648 45.402 161.773 45.402 160.636C45.402 159.881 45.321 159.237 45.1591 158.706C45 158.175 44.7699 157.77 44.4688 157.491C44.1705 157.213 43.8111 157.074 43.3906 157.074C42.7599 157.074 42.267 157.385 41.9119 158.007C41.5568 158.626 41.3793 159.503 41.3793 160.636C41.3793 161.392 41.4588 162.034 41.6179 162.562C41.777 163.091 42.0057 163.493 42.304 163.768C42.6051 164.044 42.9673 164.182 43.3906 164.182Z" fill="#858D9D"/>
<path d="M17.9034 209V208.233L20.7841 205.08C21.1222 204.71 21.4006 204.389 21.6193 204.116C21.8381 203.841 22 203.582 22.1051 203.341C22.2131 203.097 22.267 202.841 22.267 202.574C22.267 202.267 22.1932 202.001 22.0455 201.777C21.9006 201.553 21.7017 201.379 21.4489 201.257C21.196 201.135 20.9119 201.074 20.5966 201.074C20.2614 201.074 19.9688 201.143 19.7188 201.283C19.4716 201.419 19.2798 201.611 19.1435 201.858C19.0099 202.105 18.9432 202.395 18.9432 202.727H17.9375C17.9375 202.216 18.0554 201.767 18.2912 201.381C18.527 200.994 18.848 200.693 19.2543 200.477C19.6634 200.261 20.1222 200.153 20.6307 200.153C21.142 200.153 21.5952 200.261 21.9901 200.477C22.3849 200.693 22.6946 200.984 22.919 201.351C23.1435 201.717 23.2557 202.125 23.2557 202.574C23.2557 202.895 23.1974 203.209 23.081 203.516C22.9673 203.82 22.7685 204.159 22.4844 204.534C22.2031 204.906 21.8125 205.361 21.3125 205.898L19.3523 207.994V208.062H23.4091V209H17.9034ZM28.0156 209.119C27.3736 209.119 26.8267 208.945 26.375 208.595C25.9233 208.243 25.5781 207.733 25.3395 207.065C25.1009 206.395 24.9815 205.585 24.9815 204.636C24.9815 203.693 25.1009 202.888 25.3395 202.22C25.581 201.55 25.9276 201.038 26.3793 200.686C26.8338 200.331 27.3793 200.153 28.0156 200.153C28.652 200.153 29.196 200.331 29.6477 200.686C30.1023 201.038 30.4489 201.55 30.6875 202.22C30.929 202.888 31.0497 203.693 31.0497 204.636C31.0497 205.585 30.9304 206.395 30.6918 207.065C30.4531 207.733 30.108 208.243 29.6562 208.595C29.2045 208.945 28.6577 209.119 28.0156 209.119ZM28.0156 208.182C28.652 208.182 29.1463 207.875 29.4986 207.261C29.8509 206.648 30.027 205.773 30.027 204.636C30.027 203.881 29.946 203.237 29.7841 202.706C29.625 202.175 29.3949 201.77 29.0938 201.491C28.7955 201.213 28.4361 201.074 28.0156 201.074C27.3849 201.074 26.892 201.385 26.5369 202.007C26.1818 202.626 26.0043 203.503 26.0043 204.636C26.0043 205.392 26.0838 206.034 26.2429 206.562C26.402 207.091 26.6307 207.493 26.929 207.768C27.2301 208.044 27.5923 208.182 28.0156 208.182ZM35.5156 209.119C34.8736 209.119 34.3267 208.945 33.875 208.595C33.4233 208.243 33.0781 207.733 32.8395 207.065C32.6009 206.395 32.4815 205.585 32.4815 204.636C32.4815 203.693 32.6009 202.888 32.8395 202.22C33.081 201.55 33.4276 201.038 33.8793 200.686C34.3338 200.331 34.8793 200.153 35.5156 200.153C36.152 200.153 36.696 200.331 37.1477 200.686C37.6023 201.038 37.9489 201.55 38.1875 202.22C38.429 202.888 38.5497 203.693 38.5497 204.636C38.5497 205.585 38.4304 206.395 38.1918 207.065C37.9531 207.733 37.608 208.243 37.1562 208.595C36.7045 208.945 36.1577 209.119 35.5156 209.119ZM35.5156 208.182C36.152 208.182 36.6463 207.875 36.9986 207.261C37.3509 206.648 37.527 205.773 37.527 204.636C37.527 203.881 37.446 203.237 37.2841 202.706C37.125 202.175 36.8949 201.77 36.5938 201.491C36.2955 201.213 35.9361 201.074 35.5156 201.074C34.8849 201.074 34.392 201.385 34.0369 202.007C33.6818 202.626 33.5043 203.503 33.5043 204.636C33.5043 205.392 33.5838 206.034 33.7429 206.562C33.902 207.091 34.1307 207.493 34.429 207.768C34.7301 208.044 35.0923 208.182 35.5156 208.182ZM43.0156 209.119C42.3736 209.119 41.8267 208.945 41.375 208.595C40.9233 208.243 40.5781 207.733 40.3395 207.065C40.1009 206.395 39.9815 205.585 39.9815 204.636C39.9815 203.693 40.1009 202.888 40.3395 202.22C40.581 201.55 40.9276 201.038 41.3793 200.686C41.8338 200.331 42.3793 200.153 43.0156 200.153C43.652 200.153 44.196 200.331 44.6477 200.686C45.1023 201.038 45.4489 201.55 45.6875 202.22C45.929 202.888 46.0497 203.693 46.0497 204.636C46.0497 205.585 45.9304 206.395 45.6918 207.065C45.4531 207.733 45.108 208.243 44.6562 208.595C44.2045 208.945 43.6577 209.119 43.0156 209.119ZM43.0156 208.182C43.652 208.182 44.1463 207.875 44.4986 207.261C44.8509 206.648 45.027 205.773 45.027 204.636C45.027 203.881 44.946 203.237 44.7841 202.706C44.625 202.175 44.3949 201.77 44.0938 201.491C43.7955 201.213 43.4361 201.074 43.0156 201.074C42.3849 201.074 41.892 201.385 41.5369 202.007C41.1818 202.626 41.0043 203.503 41.0043 204.636C41.0043 205.392 41.0838 206.034 41.2429 206.562C41.402 207.091 41.6307 207.493 41.929 207.768C42.2301 208.044 42.5923 208.182 43.0156 208.182Z" fill="#858D9D"/>
<path d="M20.9716 244.273V253H19.9148V245.381H19.8636L17.733 246.795V245.722L19.9148 244.273H20.9716ZM26.3281 253.119C25.6861 253.119 25.1392 252.945 24.6875 252.595C24.2358 252.243 23.8906 251.733 23.652 251.065C23.4134 250.395 23.294 249.585 23.294 248.636C23.294 247.693 23.4134 246.888 23.652 246.22C23.8935 245.55 24.2401 245.038 24.6918 244.686C25.1463 244.331 25.6918 244.153 26.3281 244.153C26.9645 244.153 27.5085 244.331 27.9602 244.686C28.4148 245.038 28.7614 245.55 29 246.22C29.2415 246.888 29.3622 247.693 29.3622 248.636C29.3622 249.585 29.2429 250.395 29.0043 251.065C28.7656 251.733 28.4205 252.243 27.9688 252.595C27.517 252.945 26.9702 253.119 26.3281 253.119ZM26.3281 252.182C26.9645 252.182 27.4588 251.875 27.8111 251.261C28.1634 250.648 28.3395 249.773 28.3395 248.636C28.3395 247.881 28.2585 247.237 28.0966 246.706C27.9375 246.175 27.7074 245.77 27.4062 245.491C27.108 245.213 26.7486 245.074 26.3281 245.074C25.6974 245.074 25.2045 245.385 24.8494 246.007C24.4943 246.626 24.3168 247.503 24.3168 248.636C24.3168 249.392 24.3963 250.034 24.5554 250.562C24.7145 251.091 24.9432 251.493 25.2415 251.768C25.5426 252.044 25.9048 252.182 26.3281 252.182ZM33.8281 253.119C33.1861 253.119 32.6392 252.945 32.1875 252.595C31.7358 252.243 31.3906 251.733 31.152 251.065C30.9134 250.395 30.794 249.585 30.794 248.636C30.794 247.693 30.9134 246.888 31.152 246.22C31.3935 245.55 31.7401 245.038 32.1918 244.686C32.6463 244.331 33.1918 244.153 33.8281 244.153C34.4645 244.153 35.0085 244.331 35.4602 244.686C35.9148 245.038 36.2614 245.55 36.5 246.22C36.7415 246.888 36.8622 247.693 36.8622 248.636C36.8622 249.585 36.7429 250.395 36.5043 251.065C36.2656 251.733 35.9205 252.243 35.4688 252.595C35.017 252.945 34.4702 253.119 33.8281 253.119ZM33.8281 252.182C34.4645 252.182 34.9588 251.875 35.3111 251.261C35.6634 250.648 35.8395 249.773 35.8395 248.636C35.8395 247.881 35.7585 247.237 35.5966 246.706C35.4375 246.175 35.2074 245.77 34.9062 245.491C34.608 245.213 34.2486 245.074 33.8281 245.074C33.1974 245.074 32.7045 245.385 32.3494 246.007C31.9943 246.626 31.8168 247.503 31.8168 248.636C31.8168 249.392 31.8963 250.034 32.0554 250.562C32.2145 251.091 32.4432 251.493 32.7415 251.768C33.0426 252.044 33.4048 252.182 33.8281 252.182ZM41.3281 253.119C40.6861 253.119 40.1392 252.945 39.6875 252.595C39.2358 252.243 38.8906 251.733 38.652 251.065C38.4134 250.395 38.294 249.585 38.294 248.636C38.294 247.693 38.4134 246.888 38.652 246.22C38.8935 245.55 39.2401 245.038 39.6918 244.686C40.1463 244.331 40.6918 244.153 41.3281 244.153C41.9645 244.153 42.5085 244.331 42.9602 244.686C43.4148 245.038 43.7614 245.55 44 246.22C44.2415 246.888 44.3622 247.693 44.3622 248.636C44.3622 249.585 44.2429 250.395 44.0043 251.065C43.7656 251.733 43.4205 252.243 42.9688 252.595C42.517 252.945 41.9702 253.119 41.3281 253.119ZM41.3281 252.182C41.9645 252.182 42.4588 251.875 42.8111 251.261C43.1634 250.648 43.3395 249.773 43.3395 248.636C43.3395 247.881 43.2585 247.237 43.0966 246.706C42.9375 246.175 42.7074 245.77 42.4062 245.491C42.108 245.213 41.7486 245.074 41.3281 245.074C40.6974 245.074 40.2045 245.385 39.8494 246.007C39.4943 246.626 39.3168 247.503 39.3168 248.636C39.3168 249.392 39.3963 250.034 39.5554 250.562C39.7145 251.091 39.9432 251.493 40.2415 251.768C40.5426 252.044 40.9048 252.182 41.3281 252.182Z" fill="#858D9D"/>
<path d="M31.233 34.7273C31.233 36.2803 30.9489 37.6155 30.3807 38.733C29.8125 39.8456 29.0336 40.7027 28.044 41.304C27.0592 41.9006 25.9394 42.1989 24.6847 42.1989C23.4252 42.1989 22.3007 41.9006 21.3111 41.304C20.3262 40.7027 19.5497 39.8433 18.9815 38.7259C18.4134 37.6084 18.1293 36.2756 18.1293 34.7273C18.1293 33.1742 18.4134 31.8414 18.9815 30.7287C19.5497 29.6113 20.3262 28.7543 21.3111 28.1577C22.3007 27.5563 23.4252 27.2557 24.6847 27.2557C25.9394 27.2557 27.0592 27.5563 28.044 28.1577C29.0336 28.7543 29.8125 29.6113 30.3807 30.7287C30.9489 31.8414 31.233 33.1742 31.233 34.7273ZM29.0597 34.7273C29.0597 33.5436 28.8679 32.5469 28.4844 31.7372C28.1056 30.9228 27.5848 30.3073 26.9219 29.8906C26.2637 29.4692 25.518 29.2585 24.6847 29.2585C23.8466 29.2585 23.0985 29.4692 22.4403 29.8906C21.7822 30.3073 21.2614 30.9228 20.8778 31.7372C20.4991 32.5469 20.3097 33.5436 20.3097 34.7273C20.3097 35.911 20.4991 36.91 20.8778 37.7244C21.2614 38.5341 21.7822 39.1496 22.4403 39.571C23.0985 39.9877 23.8466 40.196 24.6847 40.196C25.518 40.196 26.2637 39.9877 26.9219 39.571C27.5848 39.1496 28.1056 38.5341 28.4844 37.7244C28.8679 36.91 29.0597 35.911 29.0597 34.7273ZM33.7987 42V31.0909H35.8512V32.8239H35.9648C36.1637 32.2367 36.5141 31.7751 37.016 31.4389C37.5226 31.098 38.0955 30.9276 38.7347 30.9276C38.8673 30.9276 39.0236 30.9323 39.2035 30.9418C39.3881 30.9512 39.5326 30.9631 39.6367 30.9773V33.0085C39.5515 32.9848 39.4 32.9588 39.1822 32.9304C38.9644 32.8973 38.7466 32.8807 38.5288 32.8807C38.0269 32.8807 37.5794 32.9872 37.1864 33.2003C36.7982 33.4086 36.4904 33.6998 36.2631 34.0739C36.0359 34.4432 35.9222 34.8646 35.9222 35.3381V42H33.7987ZM45.1676 42.2131C44.2869 42.2131 43.5009 41.9882 42.8097 41.5384C42.1231 41.0838 41.5833 40.4375 41.1903 39.5994C40.8021 38.7566 40.608 37.7457 40.608 36.5668C40.608 35.3878 40.8045 34.3793 41.1974 33.5412C41.5952 32.7031 42.1397 32.0616 42.831 31.6165C43.5223 31.1714 44.3059 30.9489 45.1818 30.9489C45.8589 30.9489 46.4034 31.0625 46.8153 31.2898C47.232 31.5123 47.554 31.7727 47.7812 32.071C48.0133 32.3693 48.1932 32.6321 48.321 32.8594H48.4489V27.4545H50.5724V42H48.4986V40.3026H48.321C48.1932 40.5346 48.0085 40.7997 47.767 41.098C47.5303 41.3963 47.2036 41.6567 46.7869 41.8793C46.3703 42.1018 45.8305 42.2131 45.1676 42.2131ZM45.6364 40.402C46.2472 40.402 46.7633 40.241 47.1847 39.919C47.6108 39.5923 47.9328 39.1402 48.1506 38.5625C48.3731 37.9848 48.4844 37.3125 48.4844 36.5455C48.4844 35.7879 48.3755 35.125 48.1577 34.5568C47.9399 33.9886 47.6203 33.5459 47.1989 33.2287C46.7775 32.9115 46.2566 32.7528 45.6364 32.7528C44.9972 32.7528 44.4645 32.9186 44.0384 33.25C43.6122 33.5814 43.2902 34.0336 43.0724 34.6065C42.8594 35.1795 42.7528 35.8258 42.7528 36.5455C42.7528 37.2746 42.8617 37.9304 43.0795 38.5128C43.2973 39.0952 43.6193 39.5568 44.0455 39.8977C44.4763 40.2339 45.0066 40.402 45.6364 40.402ZM58.305 42.2202C57.2302 42.2202 56.3046 41.9905 55.5281 41.5312C54.7563 41.0672 54.1597 40.4162 53.7383 39.5781C53.3216 38.7353 53.1133 37.7481 53.1133 36.6165C53.1133 35.4991 53.3216 34.5142 53.7383 33.6619C54.1597 32.8097 54.7468 32.1444 55.4996 31.6662C56.2572 31.188 57.1426 30.9489 58.1559 30.9489C58.7714 30.9489 59.368 31.0507 59.9457 31.2543C60.5233 31.4579 61.0418 31.7775 61.5011 32.2131C61.9603 32.6487 62.3226 33.2145 62.5877 33.9105C62.8529 34.6018 62.9854 35.4422 62.9854 36.4318V37.1847H54.3136V35.5938H60.9045C60.9045 35.035 60.7908 34.5402 60.5636 34.1094C60.3363 33.6738 60.0167 33.3305 59.6048 33.0795C59.1976 32.8286 58.7193 32.7031 58.1701 32.7031C57.5735 32.7031 57.0527 32.8499 56.6076 33.1435C56.1673 33.4323 55.8263 33.8111 55.5849 34.2798C55.3481 34.7438 55.2298 35.2481 55.2298 35.7926V37.0355C55.2298 37.7647 55.3576 38.3849 55.6133 38.8963C55.8737 39.4077 56.2359 39.7983 56.6999 40.0682C57.1639 40.3333 57.7061 40.4659 58.3263 40.4659C58.7288 40.4659 59.0958 40.4091 59.4272 40.2955C59.7586 40.1771 60.0451 40.0019 60.2866 39.7699C60.5281 39.5379 60.7127 39.2514 60.8406 38.9105L62.8505 39.2727C62.6895 39.8646 62.4007 40.383 61.984 40.8281C61.5721 41.2685 61.0536 41.6117 60.4286 41.858C59.8084 42.0994 59.1005 42.2202 58.305 42.2202ZM65.3416 42V31.0909H67.3942V32.8239H67.5078C67.7067 32.2367 68.0571 31.7751 68.5589 31.4389C69.0656 31.098 69.6385 30.9276 70.2777 30.9276C70.4103 30.9276 70.5665 30.9323 70.7464 30.9418C70.9311 30.9512 71.0755 30.9631 71.1797 30.9773V33.0085C71.0945 32.9848 70.9429 32.9588 70.7251 32.9304C70.5073 32.8973 70.2895 32.8807 70.0717 32.8807C69.5698 32.8807 69.1224 32.9872 68.7294 33.2003C68.3411 33.4086 68.0334 33.6998 67.8061 34.0739C67.5788 34.4432 67.4652 34.8646 67.4652 35.3381V42H65.3416ZM86.4141 31.2756C86.3383 30.6032 86.0258 30.0824 85.4766 29.7131C84.9273 29.339 84.236 29.152 83.4027 29.152C82.8061 29.152 82.29 29.2467 81.8544 29.4361C81.4188 29.6207 81.0803 29.8764 80.8388 30.2031C80.602 30.5251 80.4837 30.892 80.4837 31.304C80.4837 31.6496 80.5642 31.9479 80.7251 32.1989C80.8909 32.4498 81.1063 32.6605 81.3714 32.831C81.6413 32.9967 81.9302 33.1364 82.2379 33.25C82.5457 33.3589 82.8416 33.4489 83.1257 33.5199L84.5462 33.8892C85.0102 34.0028 85.486 34.1567 85.9737 34.3509C86.4614 34.545 86.9136 34.8007 87.3303 35.1179C87.7469 35.4351 88.0831 35.8281 88.3388 36.2969C88.5992 36.7656 88.7294 37.3267 88.7294 37.9801C88.7294 38.804 88.5163 39.5355 88.0902 40.1747C87.6688 40.8139 87.0556 41.3182 86.2507 41.6875C85.4505 42.0568 84.4822 42.2415 83.3459 42.2415C82.2569 42.2415 81.3146 42.0687 80.5192 41.723C79.7237 41.3774 79.1011 40.8873 78.6513 40.2528C78.2015 39.6136 77.9529 38.8561 77.9055 37.9801H80.1072C80.1499 38.5057 80.3203 38.9437 80.6186 39.294C80.9216 39.6397 81.3075 39.8977 81.7763 40.0682C82.2498 40.2339 82.7682 40.3168 83.3317 40.3168C83.9519 40.3168 84.5036 40.2197 84.9865 40.0256C85.4742 39.8267 85.8577 39.5521 86.1371 39.2017C86.4164 38.8466 86.5561 38.4323 86.5561 37.9588C86.5561 37.5279 86.433 37.1752 86.1868 36.9006C85.9453 36.6259 85.6162 36.3987 85.1996 36.2188C84.7876 36.0388 84.3213 35.8802 83.8004 35.7429L82.0817 35.2741C80.9169 34.9569 79.9936 34.4905 79.3118 33.875C78.6347 33.2595 78.2962 32.4451 78.2962 31.4318C78.2962 30.5937 78.5234 29.8622 78.978 29.2372C79.4325 28.6122 80.0481 28.1269 80.8246 27.7812C81.6011 27.4309 82.477 27.2557 83.4524 27.2557C84.4373 27.2557 85.3061 27.4285 86.0589 27.7741C86.8165 28.1198 87.4131 28.5956 87.8487 29.2017C88.2843 29.803 88.5116 30.4943 88.5305 31.2756H86.4141ZM98.092 37.4759V31.0909H100.223V42H98.1346V40.1108H98.021C97.77 40.6932 97.3675 41.1785 96.8136 41.5668C96.2643 41.9503 95.5801 42.142 94.761 42.142C94.0603 42.142 93.44 41.9882 92.9002 41.6804C92.3652 41.3679 91.9438 40.9062 91.636 40.2955C91.333 39.6847 91.1815 38.9295 91.1815 38.0298V31.0909H93.305V37.7741C93.305 38.5175 93.511 39.1094 93.9229 39.5497C94.3349 39.9901 94.8699 40.2102 95.5281 40.2102C95.9258 40.2102 96.3211 40.1108 96.7141 39.9119C97.1119 39.7131 97.4409 39.4124 97.7013 39.0099C97.9665 38.6075 98.0967 38.0961 98.092 37.4759ZM103.076 42V31.0909H105.114V32.8665H105.249C105.477 32.2652 105.848 31.7964 106.364 31.4602C106.88 31.1193 107.498 30.9489 108.218 30.9489C108.947 30.9489 109.558 31.1193 110.05 31.4602C110.548 31.8011 110.915 32.2699 111.151 32.8665H111.265C111.525 32.2841 111.94 31.8201 112.508 31.4744C113.076 31.1241 113.753 30.9489 114.539 30.9489C115.529 30.9489 116.336 31.259 116.961 31.8793C117.591 32.4995 117.906 33.4347 117.906 34.6847V42H115.782V34.8835C115.782 34.1449 115.581 33.6098 115.178 33.2784C114.776 32.947 114.295 32.7812 113.737 32.7812C113.045 32.7812 112.508 32.9943 112.124 33.4205C111.741 33.8419 111.549 34.384 111.549 35.0469V42H109.433V34.7486C109.433 34.1567 109.248 33.6809 108.879 33.321C108.509 32.9612 108.029 32.7812 107.437 32.7812C107.034 32.7812 106.663 32.8878 106.322 33.1009C105.986 33.3092 105.713 33.6004 105.505 33.9744C105.301 34.3485 105.2 34.7817 105.2 35.2741V42H103.076ZM120.752 42V31.0909H122.79V32.8665H122.925C123.152 32.2652 123.524 31.7964 124.04 31.4602C124.556 31.1193 125.174 30.9489 125.894 30.9489C126.623 30.9489 127.234 31.1193 127.726 31.4602C128.223 31.8011 128.59 32.2699 128.827 32.8665H128.941C129.201 32.2841 129.615 31.8201 130.184 31.4744C130.752 31.1241 131.429 30.9489 132.215 30.9489C133.204 30.9489 134.012 31.259 134.637 31.8793C135.266 32.4995 135.581 33.4347 135.581 34.6847V42H133.458V34.8835C133.458 34.1449 133.257 33.6098 132.854 33.2784C132.452 32.947 131.971 32.7812 131.412 32.7812C130.721 32.7812 130.184 32.9943 129.8 33.4205C129.417 33.8419 129.225 34.384 129.225 35.0469V42H127.108V34.7486C127.108 34.1567 126.924 33.6809 126.554 33.321C126.185 32.9612 125.704 32.7812 125.113 32.7812C124.71 32.7812 124.338 32.8878 123.998 33.1009C123.661 33.3092 123.389 33.6004 123.181 33.9744C122.977 34.3485 122.875 34.7817 122.875 35.2741V42H120.752ZM141.602 42.2415C140.911 42.2415 140.286 42.1136 139.727 41.858C139.169 41.5975 138.726 41.2211 138.399 40.7287C138.077 40.2363 137.916 39.6326 137.916 38.9176C137.916 38.3021 138.035 37.7955 138.271 37.3977C138.508 37 138.828 36.6851 139.23 36.4531C139.633 36.2211 140.082 36.0459 140.58 35.9276C141.077 35.8092 141.583 35.7192 142.099 35.6577C142.753 35.5819 143.283 35.5204 143.69 35.473C144.098 35.4209 144.393 35.3381 144.578 35.2244C144.763 35.1108 144.855 34.9261 144.855 34.6705V34.6207C144.855 34.0005 144.68 33.5199 144.33 33.179C143.984 32.8381 143.468 32.6676 142.781 32.6676C142.066 32.6676 141.503 32.8262 141.091 33.1435C140.684 33.456 140.402 33.804 140.246 34.1875L138.25 33.733C138.487 33.0701 138.832 32.535 139.287 32.1278C139.746 31.7159 140.274 31.4176 140.871 31.233C141.467 31.0436 142.095 30.9489 142.753 30.9489C143.188 30.9489 143.65 31.0009 144.138 31.1051C144.63 31.2045 145.089 31.3892 145.516 31.6591C145.946 31.929 146.299 32.3149 146.574 32.8168C146.848 33.3139 146.986 33.9602 146.986 34.7557V42H144.912V40.5085H144.827C144.689 40.7831 144.483 41.053 144.209 41.3182C143.934 41.5833 143.581 41.8035 143.151 41.9787C142.72 42.1539 142.204 42.2415 141.602 42.2415ZM142.064 40.5369C142.651 40.5369 143.153 40.4209 143.57 40.1889C143.991 39.9569 144.311 39.6539 144.528 39.2798C144.751 38.901 144.862 38.4962 144.862 38.0653V36.6591C144.786 36.7348 144.64 36.8059 144.422 36.8722C144.209 36.9337 143.965 36.9882 143.69 37.0355C143.416 37.0781 143.148 37.1184 142.888 37.1562C142.627 37.1894 142.41 37.2178 142.234 37.2415C141.822 37.2936 141.446 37.3812 141.105 37.5043C140.769 37.6274 140.499 37.8049 140.295 38.0369C140.097 38.2642 139.997 38.5672 139.997 38.946C139.997 39.4716 140.191 39.8693 140.58 40.1392C140.968 40.4044 141.463 40.5369 142.064 40.5369ZM149.814 42V31.0909H151.867V32.8239H151.98C152.179 32.2367 152.53 31.7751 153.032 31.4389C153.538 31.098 154.111 30.9276 154.75 30.9276C154.883 30.9276 155.039 30.9323 155.219 30.9418C155.404 30.9512 155.548 30.9631 155.652 30.9773V33.0085C155.567 32.9848 155.416 32.9588 155.198 32.9304C154.98 32.8973 154.762 32.8807 154.544 32.8807C154.042 32.8807 153.595 32.9872 153.202 33.2003C152.814 33.4086 152.506 33.6998 152.279 34.0739C152.051 34.4432 151.938 34.8646 151.938 35.3381V42H149.814ZM159.164 46.0909C158.847 46.0909 158.558 46.0649 158.298 46.0128C158.038 45.9654 157.843 45.9134 157.716 45.8565L158.227 44.1165C158.615 44.2206 158.961 44.2656 159.264 44.2514C159.567 44.2372 159.834 44.1236 160.066 43.9105C160.303 43.6974 160.511 43.3494 160.691 42.8665L160.954 42.142L156.963 31.0909H159.235L161.998 39.5568H162.112L164.875 31.0909H167.154L162.659 43.456C162.45 44.0241 162.185 44.5047 161.863 44.8977C161.541 45.2955 161.158 45.5938 160.713 45.7926C160.268 45.9915 159.752 46.0909 159.164 46.0909Z" fill="#383E49"/>
<line x1="56.6152" y1="295.5" x2="364.995" y2="295.5" stroke="#D0D3D9" stroke-linecap="round" stroke-linejoin="round" stroke-dasharray="3.5 3.5"/>
<line x1="56.4141" y1="249.9" x2="369.315" y2="249.9" stroke="#D0D3D9" stroke-linecap="round" stroke-linejoin="round"/>
<line x1="56.4141" y1="204.3" x2="369.315" y2="204.3" stroke="#D0D3D9" stroke-linecap="round" stroke-linejoin="round"/>
<line x1="56.4141" y1="158.5" x2="360.028" y2="158.5" stroke="#D0D3D9" stroke-linecap="round" stroke-linejoin="round"/>
<line x1="56.4141" y1="113.5" x2="360.028" y2="113.5" stroke="#D0D3D9" stroke-linecap="round" stroke-linejoin="round"/>
<path d="M54.957 151.599C63.8466 154.607 82.4913 186.3 98.7845 198.279C119.151 213.254 121.011 162.526 137.999 140.698C154.986 118.87 168.65 131.05 185.962 134.559C203.273 138.067 208.42 130.048 227.135 151.098C254.448 181.819 259.383 171.172 269.144 155.858C274.65 147.06 289.571 119.581 298.431 140.698C309.506 167.094 315.923 202.914 326.963 196.79C337.944 190.699 350.653 164.631 350.653 164.631C350.653 164.631 355.004 149.932 370.772 143.079" stroke="#B6D3FA" stroke-width="2"/>
<path d="M329.574 210.194C345.897 198.249 362.293 188.046 369.815 198V295.772L54.0005 296V126C69.7967 132.833 73.5354 133 83.8854 166.697C92.3984 194.413 86.048 216.552 97.0489 222.625C108.109 228.731 121.221 209.301 132.316 182.982C141.192 161.927 154.444 174.209 159.96 182.982C169.738 198.251 185.846 208.605 198.784 193.016C214.956 173.53 223.889 179.097 244.292 193.016C264.695 206.935 265.355 200.861 282.373 222.625C299.392 244.389 309.17 225.125 329.574 210.194Z" fill="url(#paint0_linear_514_647)" fill-opacity="0.5"/>
<path d="M369.815 193.252C354.468 197.25 345.21 196.803 328.889 208.79C308.487 223.773 298.709 245.612 281.692 223.773C264.675 201.933 265.169 207.219 244.768 193.252C224.366 179.285 215.435 173.698 199.264 193.252C186.327 208.895 170.22 198.505 160.443 183.183C154.927 174.38 141.677 162.055 132.802 183.183C121.708 209.594 108.596 229.091 97.5372 222.964C86.5372 216.869 94.0639 194.202 84.3748 166.842C75.4209 141.557 70.7523 131.857 54.9575 125" stroke="#DBA362" stroke-width="2"/>
<circle cx="132.5" cy="337.5" r="7.5" fill="#DBA362"/>
<circle cx="217.5" cy="337.5" r="7.5" fill="#B6D3FA"/>
<path d="M152.42 337.636C152.42 338.557 152.254 339.352 151.922 340.023C151.589 340.693 151.134 341.21 150.554 341.574C149.974 341.938 149.313 342.119 148.568 342.119C147.824 342.119 147.162 341.938 146.582 341.574C146.003 341.21 145.547 340.693 145.214 340.023C144.882 339.352 144.716 338.557 144.716 337.636C144.716 336.716 144.882 335.92 145.214 335.25C145.547 334.58 146.003 334.062 146.582 333.699C147.162 333.335 147.824 333.153 148.568 333.153C149.313 333.153 149.974 333.335 150.554 333.699C151.134 334.062 151.589 334.58 151.922 335.25C152.254 335.92 152.42 336.716 152.42 337.636ZM151.398 337.636C151.398 336.881 151.271 336.243 151.018 335.723C150.768 335.203 150.429 334.81 150 334.543C149.574 334.276 149.097 334.142 148.568 334.142C148.04 334.142 147.561 334.276 147.132 334.543C146.706 334.81 146.366 335.203 146.114 335.723C145.864 336.243 145.739 336.881 145.739 337.636C145.739 338.392 145.864 339.03 146.114 339.55C146.366 340.07 146.706 340.463 147.132 340.73C147.561 340.997 148.04 341.131 148.568 341.131C149.097 341.131 149.574 340.997 150 340.73C150.429 340.463 150.768 340.07 151.018 339.55C151.271 339.03 151.398 338.392 151.398 337.636ZM154.061 342V335.455H155.033V336.443H155.101C155.22 336.119 155.436 335.857 155.749 335.655C156.061 335.453 156.413 335.352 156.805 335.352C156.879 335.352 156.972 335.354 157.082 335.357C157.193 335.359 157.277 335.364 157.334 335.369V336.392C157.3 336.384 157.222 336.371 157.099 336.354C156.98 336.334 156.854 336.324 156.72 336.324C156.402 336.324 156.118 336.391 155.868 336.524C155.621 336.655 155.425 336.837 155.28 337.07C155.138 337.3 155.067 337.562 155.067 337.858V342H154.061ZM160.798 342.136C160.253 342.136 159.771 341.999 159.354 341.723C158.936 341.445 158.609 341.053 158.374 340.547C158.138 340.038 158.02 339.438 158.02 338.744C158.02 338.057 158.138 337.46 158.374 336.955C158.609 336.449 158.938 336.058 159.358 335.783C159.778 335.507 160.264 335.369 160.815 335.369C161.241 335.369 161.578 335.44 161.825 335.582C162.075 335.722 162.266 335.881 162.396 336.06C162.53 336.236 162.634 336.381 162.707 336.494H162.793V333.273H163.798V342H162.827V340.994H162.707C162.634 341.114 162.528 341.264 162.392 341.446C162.256 341.625 162.061 341.786 161.808 341.928C161.555 342.067 161.219 342.136 160.798 342.136ZM160.935 341.233C161.338 341.233 161.679 341.128 161.957 340.918C162.236 340.705 162.447 340.411 162.592 340.036C162.737 339.658 162.81 339.222 162.81 338.727C162.81 338.239 162.739 337.811 162.597 337.445C162.455 337.075 162.244 336.788 161.966 336.584C161.688 336.376 161.344 336.273 160.935 336.273C160.509 336.273 160.153 336.382 159.869 336.601C159.588 336.817 159.376 337.111 159.234 337.483C159.095 337.852 159.026 338.267 159.026 338.727C159.026 339.193 159.097 339.616 159.239 339.997C159.384 340.375 159.597 340.676 159.878 340.901C160.162 341.122 160.514 341.233 160.935 341.233ZM168.524 342.136C167.893 342.136 167.349 341.997 166.892 341.719C166.438 341.438 166.087 341.045 165.839 340.543C165.595 340.037 165.473 339.449 165.473 338.778C165.473 338.108 165.595 337.517 165.839 337.006C166.087 336.491 166.43 336.091 166.871 335.804C167.314 335.514 167.831 335.369 168.422 335.369C168.763 335.369 169.099 335.426 169.432 335.54C169.764 335.653 170.067 335.838 170.339 336.094C170.612 336.347 170.83 336.682 170.991 337.099C171.153 337.517 171.234 338.031 171.234 338.642V339.068H166.189V338.199H170.212C170.212 337.83 170.138 337.5 169.99 337.21C169.845 336.92 169.638 336.692 169.368 336.524C169.101 336.357 168.786 336.273 168.422 336.273C168.021 336.273 167.675 336.372 167.382 336.571C167.092 336.767 166.869 337.023 166.713 337.338C166.557 337.653 166.479 337.991 166.479 338.352V338.932C166.479 339.426 166.564 339.845 166.734 340.189C166.908 340.53 167.148 340.79 167.455 340.969C167.761 341.145 168.118 341.233 168.524 341.233C168.788 341.233 169.027 341.196 169.24 341.122C169.456 341.045 169.642 340.932 169.798 340.781C169.955 340.628 170.075 340.437 170.161 340.21L171.132 340.483C171.03 340.812 170.858 341.102 170.616 341.352C170.375 341.599 170.077 341.793 169.722 341.932C169.366 342.068 168.967 342.136 168.524 342.136ZM172.764 342V335.455H173.736V336.443H173.804C173.923 336.119 174.139 335.857 174.452 335.655C174.764 335.453 175.116 335.352 175.509 335.352C175.582 335.352 175.675 335.354 175.786 335.357C175.896 335.359 175.98 335.364 176.037 335.369V336.392C176.003 336.384 175.925 336.371 175.803 336.354C175.683 336.334 175.557 336.324 175.423 336.324C175.105 336.324 174.821 336.391 174.571 336.524C174.324 336.655 174.128 336.837 173.983 337.07C173.841 337.3 173.77 337.562 173.77 337.858V342H172.764ZM179.774 342.136C179.143 342.136 178.599 341.997 178.142 341.719C177.688 341.438 177.337 341.045 177.089 340.543C176.845 340.037 176.723 339.449 176.723 338.778C176.723 338.108 176.845 337.517 177.089 337.006C177.337 336.491 177.68 336.091 178.121 335.804C178.564 335.514 179.081 335.369 179.672 335.369C180.013 335.369 180.349 335.426 180.682 335.54C181.014 335.653 181.317 335.838 181.589 336.094C181.862 336.347 182.08 336.682 182.241 337.099C182.403 337.517 182.484 338.031 182.484 338.642V339.068H177.439V338.199H181.462C181.462 337.83 181.388 337.5 181.24 337.21C181.095 336.92 180.888 336.692 180.618 336.524C180.351 336.357 180.036 336.273 179.672 336.273C179.271 336.273 178.925 336.372 178.632 336.571C178.342 336.767 178.119 337.023 177.963 337.338C177.807 337.653 177.729 337.991 177.729 338.352V338.932C177.729 339.426 177.814 339.845 177.984 340.189C178.158 340.53 178.398 340.79 178.705 340.969C179.011 341.145 179.368 341.233 179.774 341.233C180.038 341.233 180.277 341.196 180.49 341.122C180.706 341.045 180.892 340.932 181.048 340.781C181.205 340.628 181.325 340.437 181.411 340.21L182.382 340.483C182.28 340.812 182.108 341.102 181.866 341.352C181.625 341.599 181.327 341.793 180.972 341.932C180.616 342.068 180.217 342.136 179.774 342.136ZM186.486 342.136C185.94 342.136 185.459 341.999 185.041 341.723C184.624 341.445 184.297 341.053 184.061 340.547C183.825 340.038 183.707 339.438 183.707 338.744C183.707 338.057 183.825 337.46 184.061 336.955C184.297 336.449 184.625 336.058 185.045 335.783C185.466 335.507 185.952 335.369 186.503 335.369C186.929 335.369 187.266 335.44 187.513 335.582C187.763 335.722 187.953 335.881 188.084 336.06C188.217 336.236 188.321 336.381 188.395 336.494H188.48V333.273H189.486V342H188.514V340.994H188.395C188.321 341.114 188.216 341.264 188.08 341.446C187.943 341.625 187.749 341.786 187.496 341.928C187.243 342.067 186.906 342.136 186.486 342.136ZM186.622 341.233C187.026 341.233 187.366 341.128 187.645 340.918C187.923 340.705 188.135 340.411 188.28 340.036C188.425 339.658 188.497 339.222 188.497 338.727C188.497 338.239 188.426 337.811 188.284 337.445C188.142 337.075 187.932 336.788 187.653 336.584C187.375 336.376 187.031 336.273 186.622 336.273C186.196 336.273 185.841 336.382 185.557 336.601C185.276 336.817 185.064 337.111 184.922 337.483C184.783 337.852 184.713 338.267 184.713 338.727C184.713 339.193 184.784 339.616 184.926 339.997C185.071 340.375 185.284 340.676 185.565 340.901C185.849 341.122 186.202 341.233 186.622 341.233Z" fill="#667085"/>
<path d="M232.75 342H230.057V333.273H232.869C233.716 333.273 234.44 333.447 235.043 333.797C235.645 334.143 236.107 334.642 236.428 335.293C236.749 335.94 236.909 336.716 236.909 337.619C236.909 338.528 236.747 339.311 236.423 339.967C236.099 340.621 235.628 341.124 235.009 341.476C234.389 341.825 233.636 342 232.75 342ZM231.114 341.062H232.682C233.403 341.062 234.001 340.923 234.476 340.645C234.95 340.366 235.304 339.97 235.537 339.456C235.77 338.942 235.886 338.33 235.886 337.619C235.886 336.915 235.771 336.308 235.541 335.8C235.311 335.288 234.967 334.896 234.51 334.624C234.053 334.348 233.483 334.21 232.801 334.21H231.114V341.062ZM241.29 342.136C240.659 342.136 240.115 341.997 239.658 341.719C239.203 341.438 238.852 341.045 238.605 340.543C238.361 340.037 238.239 339.449 238.239 338.778C238.239 338.108 238.361 337.517 238.605 337.006C238.852 336.491 239.196 336.091 239.636 335.804C240.08 335.514 240.597 335.369 241.188 335.369C241.528 335.369 241.865 335.426 242.197 335.54C242.53 335.653 242.832 335.838 243.105 336.094C243.378 336.347 243.595 336.682 243.757 337.099C243.919 337.517 244 338.031 244 338.642V339.068H238.955V338.199H242.977C242.977 337.83 242.903 337.5 242.756 337.21C242.611 336.92 242.403 336.692 242.134 336.524C241.866 336.357 241.551 336.273 241.188 336.273C240.787 336.273 240.44 336.372 240.148 336.571C239.858 336.767 239.635 337.023 239.479 337.338C239.322 337.653 239.244 337.991 239.244 338.352V338.932C239.244 339.426 239.33 339.845 239.5 340.189C239.673 340.53 239.913 340.79 240.22 340.969C240.527 341.145 240.884 341.233 241.29 341.233C241.554 341.233 241.793 341.196 242.006 341.122C242.222 341.045 242.408 340.932 242.564 340.781C242.72 340.628 242.841 340.437 242.926 340.21L243.898 340.483C243.795 340.812 243.624 341.102 243.382 341.352C243.141 341.599 242.842 341.793 242.487 341.932C242.132 342.068 241.733 342.136 241.29 342.136ZM246.536 333.273V342H245.53V333.273H246.536ZM248.377 342V335.455H249.383V342H248.377ZM248.889 334.364C248.693 334.364 248.524 334.297 248.382 334.163C248.243 334.03 248.173 333.869 248.173 333.682C248.173 333.494 248.243 333.334 248.382 333.2C248.524 333.067 248.693 333 248.889 333C249.085 333 249.252 333.067 249.392 333.2C249.534 333.334 249.605 333.494 249.605 333.682C249.605 333.869 249.534 334.03 249.392 334.163C249.252 334.297 249.085 334.364 248.889 334.364ZM256.577 335.455L254.157 342H253.134L250.714 335.455H251.805L253.612 340.67H253.68L255.487 335.455H256.577ZM260.415 342.136C259.784 342.136 259.24 341.997 258.783 341.719C258.328 341.438 257.977 341.045 257.73 340.543C257.486 340.037 257.364 339.449 257.364 338.778C257.364 338.108 257.486 337.517 257.73 337.006C257.977 336.491 258.321 336.091 258.761 335.804C259.205 335.514 259.722 335.369 260.312 335.369C260.653 335.369 260.99 335.426 261.322 335.54C261.655 335.653 261.957 335.838 262.23 336.094C262.503 336.347 262.72 336.682 262.882 337.099C263.044 337.517 263.125 338.031 263.125 338.642V339.068H258.08V338.199H262.102C262.102 337.83 262.028 337.5 261.881 337.21C261.736 336.92 261.528 336.692 261.259 336.524C260.991 336.357 260.676 336.273 260.312 336.273C259.912 336.273 259.565 336.372 259.273 336.571C258.983 336.767 258.76 337.023 258.604 337.338C258.447 337.653 258.369 337.991 258.369 338.352V338.932C258.369 339.426 258.455 339.845 258.625 340.189C258.798 340.53 259.038 340.79 259.345 340.969C259.652 341.145 260.009 341.233 260.415 341.233C260.679 341.233 260.918 341.196 261.131 341.122C261.347 341.045 261.533 340.932 261.689 340.781C261.845 340.628 261.966 340.437 262.051 340.21L263.023 340.483C262.92 340.812 262.749 341.102 262.507 341.352C262.266 341.599 261.967 341.793 261.612 341.932C261.257 342.068 260.858 342.136 260.415 342.136ZM264.655 342V335.455H265.626V336.443H265.695C265.814 336.119 266.03 335.857 266.342 335.655C266.655 335.453 267.007 335.352 267.399 335.352C267.473 335.352 267.565 335.354 267.676 335.357C267.787 335.359 267.871 335.364 267.928 335.369V336.392C267.893 336.384 267.815 336.371 267.693 336.354C267.574 336.334 267.447 336.324 267.314 336.324C266.996 336.324 266.712 336.391 266.462 336.524C266.214 336.655 266.018 336.837 265.874 337.07C265.732 337.3 265.661 337.562 265.661 337.858V342H264.655ZM271.665 342.136C271.034 342.136 270.49 341.997 270.033 341.719C269.578 341.438 269.227 341.045 268.98 340.543C268.736 340.037 268.614 339.449 268.614 338.778C268.614 338.108 268.736 337.517 268.98 337.006C269.227 336.491 269.571 336.091 270.011 335.804C270.455 335.514 270.972 335.369 271.562 335.369C271.903 335.369 272.24 335.426 272.572 335.54C272.905 335.653 273.207 335.838 273.48 336.094C273.753 336.347 273.97 336.682 274.132 337.099C274.294 337.517 274.375 338.031 274.375 338.642V339.068H269.33V338.199H273.352C273.352 337.83 273.278 337.5 273.131 337.21C272.986 336.92 272.778 336.692 272.509 336.524C272.241 336.357 271.926 336.273 271.562 336.273C271.162 336.273 270.815 336.372 270.523 336.571C270.233 336.767 270.01 337.023 269.854 337.338C269.697 337.653 269.619 337.991 269.619 338.352V338.932C269.619 339.426 269.705 339.845 269.875 340.189C270.048 340.53 270.288 340.79 270.595 340.969C270.902 341.145 271.259 341.233 271.665 341.233C271.929 341.233 272.168 341.196 272.381 341.122C272.597 341.045 272.783 340.932 272.939 340.781C273.095 340.628 273.216 340.437 273.301 340.21L274.273 340.483C274.17 340.812 273.999 341.102 273.757 341.352C273.516 341.599 273.217 341.793 272.862 341.932C272.507 342.068 272.108 342.136 271.665 342.136ZM278.376 342.136C277.831 342.136 277.349 341.999 276.932 341.723C276.514 341.445 276.188 341.053 275.952 340.547C275.716 340.038 275.598 339.438 275.598 338.744C275.598 338.057 275.716 337.46 275.952 336.955C276.188 336.449 276.516 336.058 276.936 335.783C277.357 335.507 277.842 335.369 278.393 335.369C278.82 335.369 279.156 335.44 279.403 335.582C279.653 335.722 279.844 335.881 279.974 336.06C280.108 336.236 280.212 336.381 280.286 336.494H280.371V333.273H281.376V342H280.405V340.994H280.286C280.212 341.114 280.107 341.264 279.97 341.446C279.834 341.625 279.639 341.786 279.386 341.928C279.134 342.067 278.797 342.136 278.376 342.136ZM278.513 341.233C278.916 341.233 279.257 341.128 279.536 340.918C279.814 340.705 280.026 340.411 280.17 340.036C280.315 339.658 280.388 339.222 280.388 338.727C280.388 338.239 280.317 337.811 280.175 337.445C280.033 337.075 279.822 336.788 279.544 336.584C279.266 336.376 278.922 336.273 278.513 336.273C278.087 336.273 277.732 336.382 277.447 336.601C277.166 336.817 276.955 337.111 276.812 337.483C276.673 337.852 276.604 338.267 276.604 338.727C276.604 339.193 276.675 339.616 276.817 339.997C276.962 340.375 277.175 340.676 277.456 340.901C277.74 341.122 278.092 341.233 278.513 341.233Z" fill="#667085"/>
<defs>
<linearGradient id="paint0_linear_514_647" x1="212.273" y1="184.938" x2="212.886" y2="295.77" gradientUnits="userSpaceOnUse">
<stop stop-color="#DF9B2D" stop-opacity="0.13"/>
<stop offset="1" stop-color="#C5A674" stop-opacity="0.13"/>
</linearGradient>
</defs>
</svg>
