<svg width="790" height="375" viewBox="0 0 790 375" fill="none" xmlns="http://www.w3.org/2000/svg">
<mask id="path-1-inside-1_55_95995" fill="white">
<path d="M0 0H790V374.242H0V0Z"/>
</mask>
<path d="M0 0H790V374.242H0V0Z" fill="white"/>
<path d="M790 374.242V375.242H791V374.242H790ZM789 0V374.242H791V0H789ZM790 373.242H0V375.242H790V373.242Z" fill="#CED4DA" mask="url(#path-1-inside-1_55_95995)"/>
<path d="M34.113 48.8691C33.2383 48.8691 32.401 48.7464 31.601 48.5011C30.801 48.2451 30.1663 47.9198 29.697 47.5251L30.417 45.9091C30.865 46.2611 31.4196 46.5544 32.081 46.7891C32.7423 47.0238 33.4196 47.1411 34.113 47.1411C34.6996 47.1411 35.1743 47.0771 35.537 46.9491C35.8996 46.8211 36.1663 46.6504 36.337 46.4371C36.5076 46.2131 36.593 45.9624 36.593 45.6851C36.593 45.3438 36.4703 45.0718 36.225 44.8691C35.9796 44.6558 35.6596 44.4904 35.265 44.3731C34.881 44.2451 34.449 44.1278 33.969 44.0211C33.4996 43.9144 33.025 43.7918 32.545 43.6531C32.0756 43.5038 31.6436 43.3171 31.249 43.0931C30.865 42.8584 30.5503 42.5491 30.305 42.1651C30.0596 41.7811 29.937 41.2904 29.937 40.6931C29.937 40.0851 30.097 39.5304 30.417 39.0291C30.7476 38.5171 31.2436 38.1118 31.905 37.8131C32.577 37.5038 33.425 37.3491 34.449 37.3491C35.121 37.3491 35.7876 37.4344 36.449 37.6051C37.1103 37.7758 37.6863 38.0211 38.177 38.3411L37.521 39.9571C37.0196 39.6584 36.5023 39.4398 35.969 39.3011C35.4356 39.1518 34.9236 39.0771 34.433 39.0771C33.857 39.0771 33.3876 39.1464 33.025 39.2851C32.673 39.4238 32.4116 39.6051 32.241 39.8291C32.081 40.0531 32.001 40.3091 32.001 40.5971C32.001 40.9384 32.1183 41.2158 32.353 41.4291C32.5983 41.6318 32.913 41.7918 33.297 41.9091C33.6916 42.0264 34.129 42.1438 34.609 42.2611C35.089 42.3678 35.5636 42.4904 36.033 42.6291C36.513 42.7678 36.945 42.9491 37.329 43.1731C37.7236 43.3971 38.0383 43.7011 38.273 44.0851C38.5183 44.4691 38.641 44.9544 38.641 45.5411C38.641 46.1384 38.4756 46.6931 38.145 47.2051C37.825 47.7064 37.329 48.1118 36.657 48.4211C35.985 48.7198 35.137 48.8691 34.113 48.8691ZM43.7275 48.8211C42.7888 48.8211 42.0635 48.5811 41.5515 48.1011C41.0395 47.6104 40.7835 46.8904 40.7835 45.9411V38.2771H42.7835V45.8931C42.7835 46.2984 42.8848 46.6131 43.0875 46.8371C43.3008 47.0611 43.5941 47.1731 43.9675 47.1731C44.4155 47.1731 44.7888 47.0558 45.0875 46.8211L45.6475 48.2451C45.4128 48.4371 45.1248 48.5811 44.7835 48.6771C44.4421 48.7731 44.0901 48.8211 43.7275 48.8211ZM39.3755 41.8291V40.2291H45.0715V41.8291H39.3755ZM50.8515 48.8211C49.9768 48.8211 49.1981 48.6344 48.5155 48.2611C47.8328 47.8771 47.2941 47.3544 46.8995 46.6931C46.5048 46.0318 46.3075 45.2798 46.3075 44.4371C46.3075 43.5838 46.5048 42.8318 46.8995 42.1811C47.2941 41.5198 47.8328 41.0024 48.5155 40.6291C49.1981 40.2558 49.9768 40.0691 50.8515 40.0691C51.7368 40.0691 52.5208 40.2558 53.2035 40.6291C53.8968 41.0024 54.4355 41.5144 54.8195 42.1651C55.2141 42.8158 55.4115 43.5731 55.4115 44.4371C55.4115 45.2798 55.2141 46.0318 54.8195 46.6931C54.4355 47.3544 53.8968 47.8771 53.2035 48.2611C52.5208 48.6344 51.7368 48.8211 50.8515 48.8211ZM50.8515 47.1091C51.3421 47.1091 51.7795 47.0024 52.1635 46.7891C52.5475 46.5758 52.8461 46.2664 53.0595 45.8611C53.2835 45.4558 53.3955 44.9811 53.3955 44.4371C53.3955 43.8824 53.2835 43.4078 53.0595 43.0131C52.8461 42.6078 52.5475 42.2984 52.1635 42.0851C51.7795 41.8718 51.3475 41.7651 50.8675 41.7651C50.3768 41.7651 49.9395 41.8718 49.5555 42.0851C49.1821 42.2984 48.8835 42.6078 48.6595 43.0131C48.4355 43.4078 48.3235 43.8824 48.3235 44.4371C48.3235 44.9811 48.4355 45.4558 48.6595 45.8611C48.8835 46.2664 49.1821 46.5758 49.5555 46.7891C49.9395 47.0024 50.3715 47.1091 50.8515 47.1091ZM61.244 48.8211C60.348 48.8211 59.548 48.6344 58.844 48.2611C58.1506 47.8771 57.6066 47.3544 57.212 46.6931C56.8173 46.0318 56.62 45.2798 56.62 44.4371C56.62 43.5838 56.8173 42.8318 57.212 42.1811C57.6066 41.5198 58.1506 41.0024 58.844 40.6291C59.548 40.2558 60.348 40.0691 61.244 40.0691C62.076 40.0691 62.8066 40.2398 63.436 40.5811C64.076 40.9118 64.5613 41.4024 64.892 42.0531L63.356 42.9491C63.1 42.5438 62.7853 42.2451 62.412 42.0531C62.0493 41.8611 61.6546 41.7651 61.228 41.7651C60.7373 41.7651 60.2946 41.8718 59.9 42.0851C59.5053 42.2984 59.196 42.6078 58.972 43.0131C58.748 43.4078 58.636 43.8824 58.636 44.4371C58.636 44.9918 58.748 45.4718 58.972 45.8771C59.196 46.2718 59.5053 46.5758 59.9 46.7891C60.2946 47.0024 60.7373 47.1091 61.228 47.1091C61.6546 47.1091 62.0493 47.0131 62.412 46.8211C62.7853 46.6291 63.1 46.3304 63.356 45.9251L64.892 46.8211C64.5613 47.4611 64.076 47.9571 63.436 48.3091C62.8066 48.6504 62.076 48.8211 61.244 48.8211ZM68.1747 46.8051L68.2227 44.2931L72.6867 40.1651H75.0867L71.2947 43.9731L70.2387 44.8531L68.1747 46.8051ZM66.5427 48.7091V36.8371H68.5427V48.7091H66.5427ZM72.9907 48.7091L69.8707 44.8531L71.1347 43.2531L75.4227 48.7091H72.9907ZM81.3285 48.7091V37.5091H85.9365C86.9285 37.5091 87.7765 37.6691 88.4805 37.9891C89.1951 38.3091 89.7445 38.7678 90.1285 39.3651C90.5125 39.9624 90.7045 40.6718 90.7045 41.4931C90.7045 42.3144 90.5125 43.0238 90.1285 43.6211C89.7445 44.2078 89.1951 44.6611 88.4805 44.9811C87.7765 45.2904 86.9285 45.4451 85.9365 45.4451H82.4805L83.4085 44.5011V48.7091H81.3285ZM88.6565 48.7091L85.8245 44.6451H88.0485L90.8965 48.7091H88.6565ZM83.4085 44.7251L82.4805 43.7331H85.8405C86.7578 43.7331 87.4458 43.5358 87.9045 43.1411C88.3738 42.7464 88.6085 42.1971 88.6085 41.4931C88.6085 40.7784 88.3738 40.2291 87.9045 39.8451C87.4458 39.4611 86.7578 39.2691 85.8405 39.2691H82.4805L83.4085 38.2451V44.7251ZM96.8556 48.8211C95.9063 48.8211 95.0743 48.6344 94.3596 48.2611C93.6556 47.8771 93.1063 47.3544 92.7116 46.6931C92.3276 46.0318 92.1356 45.2798 92.1356 44.4371C92.1356 43.5838 92.3223 42.8318 92.6956 42.1811C93.0796 41.5198 93.6023 41.0024 94.2636 40.6291C94.9356 40.2558 95.6983 40.0691 96.5516 40.0691C97.3836 40.0691 98.1249 40.2504 98.7756 40.6131C99.4263 40.9758 99.9383 41.4878 100.312 42.1491C100.685 42.8104 100.872 43.5891 100.872 44.4851C100.872 44.5704 100.866 44.6664 100.856 44.7731C100.856 44.8798 100.85 44.9811 100.84 45.0771H93.7196V43.7491H99.7836L98.9996 44.1651C99.0103 43.6744 98.9089 43.2424 98.6956 42.8691C98.4823 42.4958 98.1889 42.2024 97.8156 41.9891C97.4529 41.7758 97.0316 41.6691 96.5516 41.6691C96.0609 41.6691 95.6289 41.7758 95.2556 41.9891C94.8929 42.2024 94.6049 42.5011 94.3916 42.8851C94.1889 43.2584 94.0876 43.7011 94.0876 44.2131V44.5331C94.0876 45.0451 94.2049 45.4984 94.4396 45.8931C94.6743 46.2878 95.0049 46.5918 95.4316 46.8051C95.8583 47.0184 96.3489 47.1251 96.9036 47.1251C97.3836 47.1251 97.8156 47.0504 98.1996 46.9011C98.5836 46.7518 98.9249 46.5171 99.2236 46.1971L100.296 47.4291C99.9116 47.8771 99.4263 48.2238 98.8396 48.4691C98.2636 48.7038 97.6023 48.8211 96.8556 48.8211ZM107.529 48.8211C106.835 48.8211 106.201 48.6611 105.625 48.3411C105.059 48.0211 104.606 47.5411 104.265 46.9011C103.934 46.2504 103.769 45.4291 103.769 44.4371C103.769 43.4344 103.929 42.6131 104.249 41.9731C104.579 41.3331 105.027 40.8584 105.593 40.5491C106.158 40.2291 106.803 40.0691 107.529 40.0691C108.371 40.0691 109.113 40.2504 109.753 40.6131C110.403 40.9758 110.915 41.4824 111.289 42.1331C111.673 42.7838 111.865 43.5518 111.865 44.4371C111.865 45.3224 111.673 46.0958 111.289 46.7571C110.915 47.4078 110.403 47.9144 109.753 48.2771C109.113 48.6398 108.371 48.8211 107.529 48.8211ZM102.793 51.8131V40.1651H104.697V42.1811L104.633 44.4531L104.793 46.7251V51.8131H102.793ZM107.305 47.1091C107.785 47.1091 108.211 47.0024 108.585 46.7891C108.969 46.5758 109.273 46.2664 109.497 45.8611C109.721 45.4558 109.833 44.9811 109.833 44.4371C109.833 43.8824 109.721 43.4078 109.497 43.0131C109.273 42.6078 108.969 42.2984 108.585 42.0851C108.211 41.8718 107.785 41.7651 107.305 41.7651C106.825 41.7651 106.393 41.8718 106.009 42.0851C105.625 42.2984 105.321 42.6078 105.097 43.0131C104.873 43.4078 104.761 43.8824 104.761 44.4371C104.761 44.9811 104.873 45.4558 105.097 45.8611C105.321 46.2664 105.625 46.5758 106.009 46.7891C106.393 47.0024 106.825 47.1091 107.305 47.1091ZM117.601 48.8211C116.727 48.8211 115.948 48.6344 115.265 48.2611C114.583 47.8771 114.044 47.3544 113.649 46.6931C113.255 46.0318 113.057 45.2798 113.057 44.4371C113.057 43.5838 113.255 42.8318 113.649 42.1811C114.044 41.5198 114.583 41.0024 115.265 40.6291C115.948 40.2558 116.727 40.0691 117.601 40.0691C118.487 40.0691 119.271 40.2558 119.953 40.6291C120.647 41.0024 121.185 41.5144 121.569 42.1651C121.964 42.8158 122.161 43.5731 122.161 44.4371C122.161 45.2798 121.964 46.0318 121.569 46.6931C121.185 47.3544 120.647 47.8771 119.953 48.2611C119.271 48.6344 118.487 48.8211 117.601 48.8211ZM117.601 47.1091C118.092 47.1091 118.529 47.0024 118.913 46.7891C119.297 46.5758 119.596 46.2664 119.809 45.8611C120.033 45.4558 120.145 44.9811 120.145 44.4371C120.145 43.8824 120.033 43.4078 119.809 43.0131C119.596 42.6078 119.297 42.2984 118.913 42.0851C118.529 41.8718 118.097 41.7651 117.617 41.7651C117.127 41.7651 116.689 41.8718 116.305 42.0851C115.932 42.2984 115.633 42.6078 115.409 43.0131C115.185 43.4078 115.073 43.8824 115.073 44.4371C115.073 44.9811 115.185 45.4558 115.409 45.8611C115.633 46.2664 115.932 46.5758 116.305 46.7891C116.689 47.0024 117.121 47.1091 117.601 47.1091ZM124.074 48.7091V40.1651H125.978V42.5171L125.754 41.8291C126.01 41.2531 126.41 40.8158 126.954 40.5171C127.509 40.2184 128.197 40.0691 129.018 40.0691V41.9731C128.933 41.9518 128.853 41.9411 128.778 41.9411C128.703 41.9304 128.629 41.9251 128.554 41.9251C127.797 41.9251 127.194 42.1491 126.746 42.5971C126.298 43.0344 126.074 43.6904 126.074 44.5651V48.7091H124.074ZM134.243 48.8211C133.304 48.8211 132.579 48.5811 132.067 48.1011C131.555 47.6104 131.299 46.8904 131.299 45.9411V38.2771H133.299V45.8931C133.299 46.2984 133.4 46.6131 133.603 46.8371C133.816 47.0611 134.11 47.1731 134.483 47.1731C134.931 47.1731 135.304 47.0558 135.603 46.8211L136.163 48.2451C135.928 48.4371 135.64 48.5811 135.299 48.6771C134.958 48.7731 134.606 48.8211 134.243 48.8211ZM129.891 41.8291V40.2291H135.587V41.8291H129.891Z" fill="black"/>
<g clip-path="url(#clip0_55_95995)">
<rect width="15.4255" height="15.4255" transform="translate(560.738 34.9963)" fill="white" fill-opacity="0.01"/>
<g clip-path="url(#clip1_55_95995)">
<path d="M568.451 50.4207C572.71 50.4207 576.163 46.9676 576.163 42.708C576.163 38.4483 572.71 34.9952 568.451 34.9952C564.191 34.9952 560.738 38.4483 560.738 42.708C560.738 46.9676 564.191 50.4207 568.451 50.4207Z" fill="#04B4FC"/>
</g>
</g>
<path d="M585.013 46.8051C584.373 46.8051 583.761 46.7091 583.177 46.5171C582.593 46.3171 582.133 46.0611 581.797 45.7491L582.241 44.8131C582.561 45.0931 582.969 45.3251 583.465 45.5091C583.961 45.6931 584.477 45.7851 585.013 45.7851C585.501 45.7851 585.897 45.7291 586.201 45.6171C586.505 45.5051 586.729 45.3531 586.873 45.1611C587.017 44.9611 587.089 44.7371 587.089 44.4891C587.089 44.2011 586.993 43.9691 586.801 43.7931C586.617 43.6171 586.373 43.4771 586.069 43.3731C585.773 43.2611 585.445 43.1651 585.085 43.0851C584.725 43.0051 584.361 42.9131 583.993 42.8091C583.633 42.6971 583.301 42.5571 582.997 42.3891C582.701 42.2211 582.461 41.9971 582.277 41.7171C582.093 41.4291 582.001 41.0611 582.001 40.6131C582.001 40.1811 582.113 39.7851 582.337 39.4251C582.569 39.0571 582.921 38.7651 583.393 38.5491C583.873 38.3251 584.481 38.2131 585.217 38.2131C585.705 38.2131 586.189 38.2771 586.669 38.4051C587.149 38.5331 587.565 38.7171 587.917 38.9571L587.521 39.9171C587.161 39.6771 586.781 39.5051 586.381 39.4011C585.981 39.2891 585.593 39.2331 585.217 39.2331C584.745 39.2331 584.357 39.2931 584.053 39.4131C583.749 39.5331 583.525 39.6931 583.381 39.8931C583.245 40.0931 583.177 40.3171 583.177 40.5651C583.177 40.8611 583.269 41.0971 583.453 41.2731C583.645 41.4491 583.889 41.5891 584.185 41.6931C584.489 41.7971 584.821 41.8931 585.181 41.9811C585.541 42.0611 585.901 42.1531 586.261 42.2571C586.629 42.3611 586.961 42.4971 587.257 42.6651C587.561 42.8331 587.805 43.0571 587.989 43.3371C588.173 43.6171 588.265 43.9771 588.265 44.4171C588.265 44.8411 588.149 45.2371 587.917 45.6051C587.685 45.9651 587.325 46.2571 586.837 46.4811C586.357 46.6971 585.749 46.8051 585.013 46.8051ZM592.035 46.7811C591.395 46.7811 590.899 46.6091 590.547 46.2651C590.195 45.9211 590.019 45.4291 590.019 44.7891V38.9571H591.171V44.7411C591.171 45.0851 591.255 45.3491 591.423 45.5331C591.599 45.7171 591.847 45.8091 592.167 45.8091C592.527 45.8091 592.827 45.7091 593.067 45.5091L593.427 46.3371C593.251 46.4891 593.039 46.6011 592.791 46.6731C592.551 46.7451 592.299 46.7811 592.035 46.7811ZM588.939 41.2971V40.3491H592.995V41.2971H588.939ZM597.332 46.7811C596.692 46.7811 596.124 46.6411 595.628 46.3611C595.132 46.0811 594.74 45.6971 594.452 45.2091C594.164 44.7131 594.02 44.1531 594.02 43.5291C594.02 42.8971 594.164 42.3371 594.452 41.8491C594.74 41.3611 595.132 40.9811 595.628 40.7091C596.124 40.4291 596.692 40.2891 597.332 40.2891C597.964 40.2891 598.528 40.4291 599.024 40.7091C599.528 40.9811 599.92 41.3611 600.2 41.8491C600.488 42.3291 600.632 42.8891 600.632 43.5291C600.632 44.1611 600.488 44.7211 600.2 45.2091C599.92 45.6971 599.528 46.0811 599.024 46.3611C598.528 46.6411 597.964 46.7811 597.332 46.7811ZM597.332 45.7731C597.74 45.7731 598.104 45.6811 598.424 45.4971C598.752 45.3131 599.008 45.0531 599.192 44.7171C599.376 44.3731 599.468 43.9771 599.468 43.5291C599.468 43.0731 599.376 42.6811 599.192 42.3531C599.008 42.0171 598.752 41.7571 598.424 41.5731C598.104 41.3891 597.74 41.2971 597.332 41.2971C596.924 41.2971 596.56 41.3891 596.24 41.5731C595.92 41.7571 595.664 42.0171 595.472 42.3531C595.28 42.6811 595.184 43.0731 595.184 43.5291C595.184 43.9771 595.28 44.3731 595.472 44.7171C595.664 45.0531 595.92 45.3131 596.24 45.4971C596.56 45.6811 596.924 45.7731 597.332 45.7731ZM604.998 46.7811C604.35 46.7811 603.77 46.6411 603.258 46.3611C602.754 46.0811 602.358 45.6971 602.07 45.2091C601.782 44.7211 601.638 44.1611 601.638 43.5291C601.638 42.8971 601.782 42.3371 602.07 41.8491C602.358 41.3611 602.754 40.9811 603.258 40.7091C603.77 40.4291 604.35 40.2891 604.998 40.2891C605.574 40.2891 606.086 40.4051 606.534 40.6371C606.99 40.8611 607.342 41.1971 607.59 41.6451L606.714 42.2091C606.506 41.8971 606.25 41.6691 605.946 41.5251C605.65 41.3731 605.33 41.2971 604.986 41.2971C604.57 41.2971 604.198 41.3891 603.87 41.5731C603.542 41.7571 603.282 42.0171 603.09 42.3531C602.898 42.6811 602.802 43.0731 602.802 43.5291C602.802 43.9851 602.898 44.3811 603.09 44.7171C603.282 45.0531 603.542 45.3131 603.87 45.4971C604.198 45.6811 604.57 45.7731 604.986 45.7731C605.33 45.7731 605.65 45.7011 605.946 45.5571C606.25 45.4051 606.506 45.1731 606.714 44.8611L607.59 45.4131C607.342 45.8531 606.99 46.1931 606.534 46.4331C606.086 46.6651 605.574 46.7811 604.998 46.7811ZM609.935 45.1731L609.959 43.6971L613.619 40.3491H615.011L612.203 43.1091L611.579 43.6371L609.935 45.1731ZM608.999 46.7091V37.8051H610.151V46.7091H608.999ZM613.859 46.7091L611.363 43.6131L612.107 42.6891L615.275 46.7091H613.859ZM619.784 46.7091V38.3091H620.984V46.7091H619.784ZM626.727 40.2891C627.247 40.2891 627.703 40.3891 628.095 40.5891C628.495 40.7891 628.807 41.0931 629.031 41.5011C629.255 41.9091 629.367 42.4251 629.367 43.0491V46.7091H628.215V43.1811C628.215 42.5651 628.063 42.1011 627.759 41.7891C627.463 41.4771 627.043 41.3211 626.499 41.3211C626.091 41.3211 625.735 41.4011 625.431 41.5611C625.127 41.7211 624.891 41.9571 624.723 42.2691C624.563 42.5811 624.483 42.9691 624.483 43.4331V46.7091H623.331V40.3491H624.435V42.0651L624.255 41.6091C624.463 41.1931 624.783 40.8691 625.215 40.6371C625.647 40.4051 626.151 40.2891 626.727 40.2891Z" fill="#04B4FC"/>
<g clip-path="url(#clip2_55_95995)">
<rect width="15.4255" height="15.4255" transform="translate(669.012 34.9963)" fill="white" fill-opacity="0.01"/>
<g clip-path="url(#clip3_55_95995)">
<path d="M676.725 50.4207C680.984 50.4207 684.437 46.9676 684.437 42.708C684.437 38.4483 680.984 34.9952 676.725 34.9952C672.465 34.9952 669.012 38.4483 669.012 42.708C669.012 46.9676 672.465 50.4207 676.725 50.4207Z" fill="#6C11D9"/>
</g>
</g>
<path d="M693.287 46.8051C692.647 46.8051 692.035 46.7091 691.451 46.5171C690.867 46.3171 690.407 46.0611 690.071 45.7491L690.515 44.8131C690.835 45.0931 691.243 45.3251 691.739 45.5091C692.235 45.6931 692.751 45.7851 693.287 45.7851C693.775 45.7851 694.171 45.7291 694.475 45.6171C694.779 45.5051 695.003 45.3531 695.147 45.1611C695.291 44.9611 695.363 44.7371 695.363 44.4891C695.363 44.2011 695.267 43.9691 695.075 43.7931C694.891 43.6171 694.647 43.4771 694.343 43.3731C694.047 43.2611 693.719 43.1651 693.359 43.0851C692.999 43.0051 692.635 42.9131 692.267 42.8091C691.907 42.6971 691.575 42.5571 691.271 42.3891C690.975 42.2211 690.735 41.9971 690.551 41.7171C690.367 41.4291 690.275 41.0611 690.275 40.6131C690.275 40.1811 690.387 39.7851 690.611 39.4251C690.843 39.0571 691.195 38.7651 691.667 38.5491C692.147 38.3251 692.755 38.2131 693.491 38.2131C693.979 38.2131 694.463 38.2771 694.943 38.4051C695.423 38.5331 695.839 38.7171 696.191 38.9571L695.795 39.9171C695.435 39.6771 695.055 39.5051 694.655 39.4011C694.255 39.2891 693.867 39.2331 693.491 39.2331C693.019 39.2331 692.631 39.2931 692.327 39.4131C692.023 39.5331 691.799 39.6931 691.655 39.8931C691.519 40.0931 691.451 40.3171 691.451 40.5651C691.451 40.8611 691.543 41.0971 691.727 41.2731C691.919 41.4491 692.163 41.5891 692.459 41.6931C692.763 41.7971 693.095 41.8931 693.455 41.9811C693.815 42.0611 694.175 42.1531 694.535 42.2571C694.903 42.3611 695.235 42.4971 695.531 42.6651C695.835 42.8331 696.079 43.0571 696.263 43.3371C696.447 43.6171 696.539 43.9771 696.539 44.4171C696.539 44.8411 696.423 45.2371 696.191 45.6051C695.959 45.9651 695.599 46.2571 695.111 46.4811C694.631 46.6971 694.023 46.8051 693.287 46.8051ZM700.308 46.7811C699.668 46.7811 699.172 46.6091 698.82 46.2651C698.468 45.9211 698.292 45.4291 698.292 44.7891V38.9571H699.444V44.7411C699.444 45.0851 699.528 45.3491 699.696 45.5331C699.872 45.7171 700.12 45.8091 700.44 45.8091C700.8 45.8091 701.1 45.7091 701.34 45.5091L701.7 46.3371C701.524 46.4891 701.312 46.6011 701.064 46.6731C700.824 46.7451 700.572 46.7811 700.308 46.7811ZM697.212 41.2971V40.3491H701.268V41.2971H697.212ZM705.606 46.7811C704.966 46.7811 704.398 46.6411 703.902 46.3611C703.406 46.0811 703.014 45.6971 702.726 45.2091C702.438 44.7131 702.294 44.1531 702.294 43.5291C702.294 42.8971 702.438 42.3371 702.726 41.8491C703.014 41.3611 703.406 40.9811 703.902 40.7091C704.398 40.4291 704.966 40.2891 705.606 40.2891C706.238 40.2891 706.802 40.4291 707.298 40.7091C707.802 40.9811 708.194 41.3611 708.474 41.8491C708.762 42.3291 708.906 42.8891 708.906 43.5291C708.906 44.1611 708.762 44.7211 708.474 45.2091C708.194 45.6971 707.802 46.0811 707.298 46.3611C706.802 46.6411 706.238 46.7811 705.606 46.7811ZM705.606 45.7731C706.014 45.7731 706.378 45.6811 706.698 45.4971C707.026 45.3131 707.282 45.0531 707.466 44.7171C707.65 44.3731 707.742 43.9771 707.742 43.5291C707.742 43.0731 707.65 42.6811 707.466 42.3531C707.282 42.0171 707.026 41.7571 706.698 41.5731C706.378 41.3891 706.014 41.2971 705.606 41.2971C705.198 41.2971 704.834 41.3891 704.514 41.5731C704.194 41.7571 703.938 42.0171 703.746 42.3531C703.554 42.6811 703.458 43.0731 703.458 43.5291C703.458 43.9771 703.554 44.3731 703.746 44.7171C703.938 45.0531 704.194 45.3131 704.514 45.4971C704.834 45.6811 705.198 45.7731 705.606 45.7731ZM713.271 46.7811C712.623 46.7811 712.043 46.6411 711.531 46.3611C711.027 46.0811 710.631 45.6971 710.343 45.2091C710.055 44.7211 709.911 44.1611 709.911 43.5291C709.911 42.8971 710.055 42.3371 710.343 41.8491C710.631 41.3611 711.027 40.9811 711.531 40.7091C712.043 40.4291 712.623 40.2891 713.271 40.2891C713.847 40.2891 714.359 40.4051 714.807 40.6371C715.263 40.8611 715.615 41.1971 715.863 41.6451L714.987 42.2091C714.779 41.8971 714.523 41.6691 714.219 41.5251C713.923 41.3731 713.603 41.2971 713.259 41.2971C712.843 41.2971 712.471 41.3891 712.143 41.5731C711.815 41.7571 711.555 42.0171 711.363 42.3531C711.171 42.6811 711.075 43.0731 711.075 43.5291C711.075 43.9851 711.171 44.3811 711.363 44.7171C711.555 45.0531 711.815 45.3131 712.143 45.4971C712.471 45.6811 712.843 45.7731 713.259 45.7731C713.603 45.7731 713.923 45.7011 714.219 45.5571C714.523 45.4051 714.779 45.1731 714.987 44.8611L715.863 45.4131C715.615 45.8531 715.263 46.1931 714.807 46.4331C714.359 46.6651 713.847 46.7811 713.271 46.7811ZM718.209 45.1731L718.233 43.6971L721.893 40.3491H723.285L720.477 43.1091L719.853 43.6371L718.209 45.1731ZM717.273 46.7091V37.8051H718.425V46.7091H717.273ZM722.133 46.7091L719.637 43.6131L720.381 42.6891L723.549 46.7091H722.133ZM731.85 46.8051C731.21 46.8051 730.614 46.6971 730.062 46.4811C729.518 46.2651 729.046 45.9651 728.646 45.5811C728.246 45.1891 727.934 44.7331 727.71 44.2131C727.486 43.6931 727.374 43.1251 727.374 42.5091C727.374 41.8931 727.486 41.3251 727.71 40.8051C727.934 40.2851 728.246 39.8331 728.646 39.4491C729.046 39.0571 729.518 38.7531 730.062 38.5371C730.606 38.3211 731.202 38.2131 731.85 38.2131C732.49 38.2131 733.078 38.3211 733.614 38.5371C734.158 38.7451 734.63 39.0451 735.03 39.4371C735.438 39.8211 735.75 40.2731 735.966 40.7931C736.19 41.3131 736.302 41.8851 736.302 42.5091C736.302 43.1331 736.19 43.7051 735.966 44.2251C735.75 44.7451 735.438 45.2011 735.03 45.5931C734.63 45.9771 734.158 46.2771 733.614 46.4931C733.078 46.7011 732.49 46.8051 731.85 46.8051ZM731.85 45.7371C732.314 45.7371 732.742 45.6571 733.134 45.4971C733.534 45.3371 733.878 45.1131 734.166 44.8251C734.462 44.5291 734.69 44.1851 734.85 43.7931C735.018 43.4011 735.102 42.9731 735.102 42.5091C735.102 42.0451 735.018 41.6171 734.85 41.2251C734.69 40.8331 734.462 40.4931 734.166 40.2051C733.878 39.9091 733.534 39.6811 733.134 39.5211C732.742 39.3611 732.314 39.2811 731.85 39.2811C731.378 39.2811 730.942 39.3611 730.542 39.5211C730.15 39.6811 729.806 39.9091 729.51 40.2051C729.214 40.4931 728.982 40.8331 728.814 41.2251C728.654 41.6171 728.574 42.0451 728.574 42.5091C728.574 42.9731 728.654 43.4011 728.814 43.7931C728.982 44.1851 729.214 44.5291 729.51 44.8251C729.806 45.1131 730.15 45.3371 730.542 45.4971C730.942 45.6571 731.378 45.7371 731.85 45.7371ZM740.644 46.7811C740.1 46.7811 739.62 46.6811 739.204 46.4811C738.796 46.2811 738.476 45.9771 738.244 45.5691C738.02 45.1531 737.908 44.6331 737.908 44.0091V40.3491H739.06V43.8771C739.06 44.5011 739.208 44.9691 739.504 45.2811C739.808 45.5931 740.232 45.7491 740.776 45.7491C741.176 45.7491 741.524 45.6691 741.82 45.5091C742.116 45.3411 742.344 45.1011 742.504 44.7891C742.664 44.4691 742.744 44.0851 742.744 43.6371V40.3491H743.896V46.7091H742.804V44.9931L742.984 45.4491C742.776 45.8731 742.464 46.2011 742.048 46.4331C741.632 46.6651 741.164 46.7811 740.644 46.7811ZM748.273 46.7811C747.633 46.7811 747.137 46.6091 746.785 46.2651C746.433 45.9211 746.257 45.4291 746.257 44.7891V38.9571H747.409V44.7411C747.409 45.0851 747.493 45.3491 747.661 45.5331C747.837 45.7171 748.085 45.8091 748.405 45.8091C748.765 45.8091 749.065 45.7091 749.305 45.5091L749.665 46.3371C749.489 46.4891 749.277 46.6011 749.029 46.6731C748.789 46.7451 748.537 46.7811 748.273 46.7811ZM745.177 41.2971V40.3491H749.233V41.2971H745.177Z" fill="#6C11D9"/>
<path d="M29.6443 91.8485V90.9161L33.5521 87.1455C33.8994 86.8164 34.1554 86.5284 34.3199 86.2816C34.4936 86.0257 34.6079 85.7926 34.6627 85.5823C34.7267 85.363 34.7587 85.1527 34.7587 84.9516C34.7587 84.458 34.585 84.0695 34.2376 83.7861C33.8903 83.5028 33.383 83.3611 32.7157 83.3611C32.2038 83.3611 31.7422 83.4479 31.3308 83.6216C30.9195 83.7861 30.563 84.0467 30.2613 84.4032L29.3289 83.5942C29.6946 83.128 30.1836 82.7715 30.7961 82.5247C31.4176 82.2687 32.0987 82.1408 32.8391 82.1408C33.5064 82.1408 34.0868 82.2504 34.5804 82.4698C35.074 82.6801 35.4534 82.9863 35.7185 83.3885C35.9927 83.7907 36.1298 84.266 36.1298 84.8145C36.1298 85.1253 36.0887 85.4315 36.0064 85.7332C35.9242 86.0348 35.7688 86.3548 35.5402 86.693C35.3117 87.0312 34.9826 87.4106 34.553 87.831L31.0703 91.1904L30.7412 90.6556H36.5412V91.8485H29.6443ZM40.7673 91.9582C40.0909 91.9582 39.4327 91.8531 38.7929 91.6428C38.1621 91.4326 37.6457 91.1492 37.2435 90.7927L37.8742 89.7095C38.1941 90.0112 38.61 90.258 39.1219 90.4499C39.6338 90.6419 40.1777 90.7379 40.7536 90.7379C41.4849 90.7379 42.0471 90.5825 42.4401 90.2717C42.8332 89.9609 43.0297 89.545 43.0297 89.0239C43.0297 88.6674 42.9429 88.3566 42.7692 88.0916C42.5955 87.8265 42.2939 87.6254 41.8642 87.4882C41.4438 87.342 40.8633 87.2689 40.1229 87.2689H37.9428L38.4501 82.2504H43.8661V83.4434H38.9574L39.6704 82.7715L39.2728 86.7341L38.5598 86.076H40.4108C41.3706 86.076 42.143 86.1994 42.7281 86.4462C43.3131 86.693 43.7382 87.0358 44.0032 87.4745C44.2683 87.9042 44.4009 88.4023 44.4009 88.9691C44.4009 89.5176 44.2683 90.0203 44.0032 90.4774C43.7382 90.9253 43.336 91.2863 42.7966 91.5606C42.2665 91.8257 41.59 91.9582 40.7673 91.9582ZM49.4634 91.9582C48.7139 91.9582 48.042 91.7662 47.4478 91.3823C46.8628 90.9984 46.3966 90.4408 46.0493 89.7095C45.711 88.9782 45.5419 88.0916 45.5419 87.0495C45.5419 86.0074 45.711 85.1207 46.0493 84.3894C46.3966 83.6582 46.8628 83.1006 47.4478 82.7166C48.042 82.3327 48.7139 82.1408 49.4634 82.1408C50.2038 82.1408 50.8711 82.3327 51.4653 82.7166C52.0595 83.1006 52.5257 83.6582 52.8639 84.3894C53.2021 85.1207 53.3712 86.0074 53.3712 87.0495C53.3712 88.0916 53.2021 88.9782 52.8639 89.7095C52.5257 90.4408 52.0595 90.9984 51.4653 91.3823C50.8711 91.7662 50.2038 91.9582 49.4634 91.9582ZM49.4634 90.7379C49.9662 90.7379 50.405 90.6008 50.7797 90.3265C51.1637 90.0523 51.4607 89.641 51.671 89.0925C51.8904 88.544 52.0001 87.863 52.0001 87.0495C52.0001 86.2359 51.8904 85.5549 51.671 85.0065C51.4607 84.458 51.1637 84.0467 50.7797 83.7724C50.405 83.4982 49.9662 83.3611 49.4634 83.3611C48.9607 83.3611 48.5173 83.4982 48.1334 83.7724C47.7495 84.0467 47.4478 84.458 47.2285 85.0065C47.0182 85.5549 46.9131 86.2359 46.9131 87.0495C46.9131 87.863 47.0182 88.544 47.2285 89.0925C47.4478 89.641 47.7495 90.0523 48.1334 90.3265C48.5173 90.6008 48.9607 90.7379 49.4634 90.7379ZM58.6089 91.9582C57.8593 91.9582 57.1875 91.7662 56.5933 91.3823C56.0083 90.9984 55.5421 90.4408 55.1947 89.7095C54.8565 88.9782 54.6874 88.0916 54.6874 87.0495C54.6874 86.0074 54.8565 85.1207 55.1947 84.3894C55.5421 83.6582 56.0083 83.1006 56.5933 82.7166C57.1875 82.3327 57.8593 82.1408 58.6089 82.1408C59.3493 82.1408 60.0166 82.3327 60.6108 82.7166C61.2049 83.1006 61.6711 83.6582 62.0094 84.3894C62.3476 85.1207 62.5167 86.0074 62.5167 87.0495C62.5167 88.0916 62.3476 88.9782 62.0094 89.7095C61.6711 90.4408 61.2049 90.9984 60.6108 91.3823C60.0166 91.7662 59.3493 91.9582 58.6089 91.9582ZM58.6089 90.7379C59.1117 90.7379 59.5504 90.6008 59.9252 90.3265C60.3091 90.0523 60.6062 89.641 60.8165 89.0925C61.0358 88.544 61.1455 87.863 61.1455 87.0495C61.1455 86.2359 61.0358 85.5549 60.8165 85.0065C60.6062 84.458 60.3091 84.0467 59.9252 83.7724C59.5504 83.4982 59.1117 83.3611 58.6089 83.3611C58.1061 83.3611 57.6628 83.4982 57.2789 83.7724C56.895 84.0467 56.5933 84.458 56.3739 85.0065C56.1637 85.5549 56.0586 86.2359 56.0586 87.0495C56.0586 87.863 56.1637 88.544 56.3739 89.0925C56.5933 89.641 56.895 90.0523 57.2789 90.3265C57.6628 90.6008 58.1061 90.7379 58.6089 90.7379ZM67.7544 91.9582C67.0048 91.9582 66.3329 91.7662 65.7388 91.3823C65.1538 90.9984 64.6876 90.4408 64.3402 89.7095C64.002 88.9782 63.8329 88.0916 63.8329 87.0495C63.8329 86.0074 64.002 85.1207 64.3402 84.3894C64.6876 83.6582 65.1538 83.1006 65.7388 82.7166C66.3329 82.3327 67.0048 82.1408 67.7544 82.1408C68.4948 82.1408 69.1621 82.3327 69.7563 82.7166C70.3504 83.1006 70.8166 83.6582 71.1548 84.3894C71.493 85.1207 71.6622 86.0074 71.6622 87.0495C71.6622 88.0916 71.493 88.9782 71.1548 89.7095C70.8166 90.4408 70.3504 90.9984 69.7563 91.3823C69.1621 91.7662 68.4948 91.9582 67.7544 91.9582ZM67.7544 90.7379C68.2571 90.7379 68.6959 90.6008 69.0707 90.3265C69.4546 90.0523 69.7517 89.641 69.9619 89.0925C70.1813 88.544 70.291 87.863 70.291 87.0495C70.291 86.2359 70.1813 85.5549 69.9619 85.0065C69.7517 84.458 69.4546 84.0467 69.0707 83.7724C68.6959 83.4982 68.2571 83.3611 67.7544 83.3611C67.2516 83.3611 66.8083 83.4982 66.4244 83.7724C66.0404 84.0467 65.7388 84.458 65.5194 85.0065C65.3092 85.5549 65.204 86.2359 65.204 87.0495C65.204 87.863 65.3092 88.544 65.5194 89.0925C65.7388 89.641 66.0404 90.0523 66.4244 90.3265C66.8083 90.6008 67.2516 90.7379 67.7544 90.7379Z" fill="#5C6F88"/>
<path d="M29.6443 141.985V141.053L33.5521 137.282C33.8994 136.953 34.1554 136.665 34.3199 136.419C34.4936 136.163 34.6079 135.93 34.6627 135.719C34.7267 135.5 34.7587 135.29 34.7587 135.089C34.7587 134.595 34.585 134.206 34.2376 133.923C33.8903 133.64 33.383 133.498 32.7157 133.498C32.2038 133.498 31.7422 133.585 31.3308 133.759C30.9195 133.923 30.563 134.184 30.2613 134.54L29.3289 133.731C29.6946 133.265 30.1836 132.908 30.7961 132.662C31.4176 132.406 32.0987 132.278 32.8391 132.278C33.5064 132.278 34.0868 132.387 34.5804 132.607C35.074 132.817 35.4534 133.123 35.7185 133.525C35.9927 133.928 36.1298 134.403 36.1298 134.951C36.1298 135.262 36.0887 135.568 36.0064 135.87C35.9242 136.172 35.7688 136.492 35.5402 136.83C35.3117 137.168 34.9826 137.548 34.553 137.968L31.0703 141.327L30.7412 140.793H36.5412V141.985H29.6443ZM41.5766 142.095C40.8271 142.095 40.1552 141.903 39.561 141.519C38.976 141.135 38.5098 140.578 38.1625 139.846C37.8242 139.115 37.6551 138.229 37.6551 137.186C37.6551 136.144 37.8242 135.258 38.1625 134.526C38.5098 133.795 38.976 133.238 39.561 132.854C40.1552 132.47 40.8271 132.278 41.5766 132.278C42.3171 132.278 42.9843 132.47 43.5785 132.854C44.1727 133.238 44.6389 133.795 44.9771 134.526C45.3153 135.258 45.4844 136.144 45.4844 137.186C45.4844 138.229 45.3153 139.115 44.9771 139.846C44.6389 140.578 44.1727 141.135 43.5785 141.519C42.9843 141.903 42.3171 142.095 41.5766 142.095ZM41.5766 140.875C42.0794 140.875 42.5182 140.738 42.8929 140.463C43.2769 140.189 43.5739 139.778 43.7842 139.229C44.0036 138.681 44.1133 138 44.1133 137.186C44.1133 136.373 44.0036 135.692 43.7842 135.143C43.5739 134.595 43.2769 134.184 42.8929 133.909C42.5182 133.635 42.0794 133.498 41.5766 133.498C41.0739 133.498 40.6305 133.635 40.2466 133.909C39.8627 134.184 39.561 134.595 39.3417 135.143C39.1314 135.692 39.0263 136.373 39.0263 137.186C39.0263 138 39.1314 138.681 39.3417 139.229C39.561 139.778 39.8627 140.189 40.2466 140.463C40.6305 140.738 41.0739 140.875 41.5766 140.875ZM50.7221 142.095C49.9725 142.095 49.3007 141.903 48.7065 141.519C48.1215 141.135 47.6553 140.578 47.3079 139.846C46.9697 139.115 46.8006 138.229 46.8006 137.186C46.8006 136.144 46.9697 135.258 47.3079 134.526C47.6553 133.795 48.1215 133.238 48.7065 132.854C49.3007 132.47 49.9725 132.278 50.7221 132.278C51.4625 132.278 52.1298 132.47 52.724 132.854C53.3181 133.238 53.7843 133.795 54.1226 134.526C54.4608 135.258 54.6299 136.144 54.6299 137.186C54.6299 138.229 54.4608 139.115 54.1226 139.846C53.7843 140.578 53.3181 141.135 52.724 141.519C52.1298 141.903 51.4625 142.095 50.7221 142.095ZM50.7221 140.875C51.2249 140.875 51.6636 140.738 52.0384 140.463C52.4223 140.189 52.7194 139.778 52.9297 139.229C53.149 138.681 53.2587 138 53.2587 137.186C53.2587 136.373 53.149 135.692 52.9297 135.143C52.7194 134.595 52.4223 134.184 52.0384 133.909C51.6636 133.635 51.2249 133.498 50.7221 133.498C50.2193 133.498 49.776 133.635 49.3921 133.909C49.0082 134.184 48.7065 134.595 48.4871 135.143C48.2769 135.692 48.1718 136.373 48.1718 137.186C48.1718 138 48.2769 138.681 48.4871 139.229C48.7065 139.778 49.0082 140.189 49.3921 140.463C49.776 140.738 50.2193 140.875 50.7221 140.875ZM59.8676 142.095C59.118 142.095 58.4461 141.903 57.852 141.519C57.267 141.135 56.8008 140.578 56.4534 139.846C56.1152 139.115 55.9461 138.229 55.9461 137.186C55.9461 136.144 56.1152 135.258 56.4534 134.526C56.8008 133.795 57.267 133.238 57.852 132.854C58.4461 132.47 59.118 132.278 59.8676 132.278C60.608 132.278 61.2753 132.47 61.8695 132.854C62.4636 133.238 62.9298 133.795 63.268 134.526C63.6062 135.258 63.7754 136.144 63.7754 137.186C63.7754 138.229 63.6062 139.115 63.268 139.846C62.9298 140.578 62.4636 141.135 61.8695 141.519C61.2753 141.903 60.608 142.095 59.8676 142.095ZM59.8676 140.875C60.3703 140.875 60.8091 140.738 61.1839 140.463C61.5678 140.189 61.8649 139.778 62.0751 139.229C62.2945 138.681 62.4042 138 62.4042 137.186C62.4042 136.373 62.2945 135.692 62.0751 135.143C61.8649 134.595 61.5678 134.184 61.1839 133.909C60.8091 133.635 60.3703 133.498 59.8676 133.498C59.3648 133.498 58.9215 133.635 58.5376 133.909C58.1536 134.184 57.852 134.595 57.6326 135.143C57.4224 135.692 57.3172 136.373 57.3172 137.186C57.3172 138 57.4224 138.681 57.6326 139.229C57.852 139.778 58.1536 140.189 58.5376 140.463C58.9215 140.738 59.3648 140.875 59.8676 140.875ZM69.013 142.095C68.2635 142.095 67.5916 141.903 66.9975 141.519C66.4124 141.135 65.9462 140.578 65.5989 139.846C65.2607 139.115 65.0916 138.229 65.0916 137.186C65.0916 136.144 65.2607 135.258 65.5989 134.526C65.9462 133.795 66.4124 133.238 66.9975 132.854C67.5916 132.47 68.2635 132.278 69.013 132.278C69.7535 132.278 70.4208 132.47 71.0149 132.854C71.6091 133.238 72.0753 133.795 72.4135 134.526C72.7517 135.258 72.9208 136.144 72.9208 137.186C72.9208 138.229 72.7517 139.115 72.4135 139.846C72.0753 140.578 71.6091 141.135 71.0149 141.519C70.4208 141.903 69.7535 142.095 69.013 142.095ZM69.013 140.875C69.5158 140.875 69.9546 140.738 70.3294 140.463C70.7133 140.189 71.0104 139.778 71.2206 139.229C71.44 138.681 71.5497 138 71.5497 137.186C71.5497 136.373 71.44 135.692 71.2206 135.143C71.0104 134.595 70.7133 134.184 70.3294 133.909C69.9546 133.635 69.5158 133.498 69.013 133.498C68.5103 133.498 68.067 133.635 67.683 133.909C67.2991 134.184 66.9975 134.595 66.7781 135.143C66.5678 135.692 66.4627 136.373 66.4627 137.186C66.4627 138 66.5678 138.681 66.7781 139.229C66.9975 139.778 67.2991 140.189 67.683 140.463C68.067 140.738 68.5103 140.875 69.013 140.875Z" fill="#5C6F88"/>
<path d="M31.4131 192.122V183.073L32.0027 183.717H29.2467V182.524H32.7705V192.122H31.4131ZM37.9688 192.232C37.2924 192.232 36.6342 192.127 35.9943 191.917C35.3636 191.707 34.8471 191.423 34.4449 191.067L35.0757 189.983C35.3956 190.285 35.8115 190.532 36.3234 190.724C36.8353 190.916 37.3792 191.012 37.9551 191.012C38.6864 191.012 39.2485 190.856 39.6416 190.546C40.0347 190.235 40.2312 189.819 40.2312 189.298C40.2312 188.941 40.1443 188.631 39.9707 188.365C39.797 188.1 39.4953 187.899 39.0657 187.762C38.6452 187.616 38.0648 187.543 37.3243 187.543H35.1442L35.6515 182.524H41.0676V183.717H36.1589L36.8719 183.045L36.4742 187.008L35.7612 186.35H37.6123C38.5721 186.35 39.3445 186.473 39.9295 186.72C40.5146 186.967 40.9396 187.31 41.2047 187.748C41.4698 188.178 41.6023 188.676 41.6023 189.243C41.6023 189.791 41.4698 190.294 41.2047 190.751C40.9396 191.199 40.5374 191.56 39.9981 191.834C39.4679 192.1 38.7915 192.232 37.9688 192.232ZM46.6649 192.232C45.9153 192.232 45.2435 192.04 44.6493 191.656C44.0643 191.272 43.5981 190.715 43.2507 189.983C42.9125 189.252 42.7434 188.365 42.7434 187.323C42.7434 186.281 42.9125 185.395 43.2507 184.663C43.5981 183.932 44.0643 183.374 44.6493 182.991C45.2435 182.607 45.9153 182.415 46.6649 182.415C47.4053 182.415 48.0726 182.607 48.6668 182.991C49.2609 183.374 49.7271 183.932 50.0653 184.663C50.4036 185.395 50.5727 186.281 50.5727 187.323C50.5727 188.365 50.4036 189.252 50.0653 189.983C49.7271 190.715 49.2609 191.272 48.6668 191.656C48.0726 192.04 47.4053 192.232 46.6649 192.232ZM46.6649 191.012C47.1676 191.012 47.6064 190.875 47.9812 190.6C48.3651 190.326 48.6622 189.915 48.8724 189.366C49.0918 188.818 49.2015 188.137 49.2015 187.323C49.2015 186.51 49.0918 185.829 48.8724 185.28C48.6622 184.732 48.3651 184.321 47.9812 184.046C47.6064 183.772 47.1676 183.635 46.6649 183.635C46.1621 183.635 45.7188 183.772 45.3349 184.046C44.9509 184.321 44.6493 184.732 44.4299 185.28C44.2197 185.829 44.1145 186.51 44.1145 187.323C44.1145 188.137 44.2197 188.818 44.4299 189.366C44.6493 189.915 44.9509 190.326 45.3349 190.6C45.7188 190.875 46.1621 191.012 46.6649 191.012ZM55.8104 192.232C55.0608 192.232 54.3889 192.04 53.7948 191.656C53.2097 191.272 52.7436 190.715 52.3962 189.983C52.058 189.252 51.8889 188.365 51.8889 187.323C51.8889 186.281 52.058 185.395 52.3962 184.663C52.7436 183.932 53.2097 183.374 53.7948 182.991C54.3889 182.607 55.0608 182.415 55.8104 182.415C56.5508 182.415 57.2181 182.607 57.8122 182.991C58.4064 183.374 58.8726 183.932 59.2108 184.663C59.549 185.395 59.7181 186.281 59.7181 187.323C59.7181 188.365 59.549 189.252 59.2108 189.983C58.8726 190.715 58.4064 191.272 57.8122 191.656C57.2181 192.04 56.5508 192.232 55.8104 192.232ZM55.8104 191.012C56.3131 191.012 56.7519 190.875 57.1267 190.6C57.5106 190.326 57.8077 189.915 58.0179 189.366C58.2373 188.818 58.347 188.137 58.347 187.323C58.347 186.51 58.2373 185.829 58.0179 185.28C57.8077 184.732 57.5106 184.321 57.1267 184.046C56.7519 183.772 56.3131 183.635 55.8104 183.635C55.3076 183.635 54.8643 183.772 54.4803 184.046C54.0964 184.321 53.7948 184.732 53.5754 185.28C53.3651 185.829 53.26 186.51 53.26 187.323C53.26 188.137 53.3651 188.818 53.5754 189.366C53.7948 189.915 54.0964 190.326 54.4803 190.6C54.8643 190.875 55.3076 191.012 55.8104 191.012ZM64.9558 192.232C64.2063 192.232 63.5344 192.04 62.9402 191.656C62.3552 191.272 61.889 190.715 61.5417 189.983C61.2034 189.252 61.0343 188.365 61.0343 187.323C61.0343 186.281 61.2034 185.395 61.5417 184.663C61.889 183.932 62.3552 183.374 62.9402 182.991C63.5344 182.607 64.2063 182.415 64.9558 182.415C65.6963 182.415 66.3635 182.607 66.9577 182.991C67.5519 183.374 68.0181 183.932 68.3563 184.663C68.6945 185.395 68.8636 186.281 68.8636 187.323C68.8636 188.365 68.6945 189.252 68.3563 189.983C68.0181 190.715 67.5519 191.272 66.9577 191.656C66.3635 192.04 65.6963 192.232 64.9558 192.232ZM64.9558 191.012C65.4586 191.012 65.8974 190.875 66.2721 190.6C66.6561 190.326 66.9531 189.915 67.1634 189.366C67.3828 188.818 67.4925 188.137 67.4925 187.323C67.4925 186.51 67.3828 185.829 67.1634 185.28C66.9531 184.732 66.6561 184.321 66.2721 184.046C65.8974 183.772 65.4586 183.635 64.9558 183.635C64.4531 183.635 64.0097 183.772 63.6258 184.046C63.2419 184.321 62.9402 184.732 62.7209 185.28C62.5106 185.829 62.4055 186.51 62.4055 187.323C62.4055 188.137 62.5106 188.818 62.7209 189.366C62.9402 189.915 63.2419 190.326 63.6258 190.6C64.0097 190.875 64.4531 191.012 64.9558 191.012Z" fill="#5C6F88"/>
<path d="M31.4131 242.259V233.21L32.0027 233.854H29.2467V232.661H32.7705V242.259H31.4131ZM38.7915 242.369C38.0419 242.369 37.37 242.177 36.7759 241.793C36.1909 241.409 35.7247 240.852 35.3773 240.12C35.0391 239.389 34.87 238.502 34.87 237.46C34.87 236.418 35.0391 235.532 35.3773 234.8C35.7247 234.069 36.1909 233.511 36.7759 233.128C37.37 232.744 38.0419 232.552 38.7915 232.552C39.5319 232.552 40.1992 232.744 40.7934 233.128C41.3875 233.511 41.8537 234.069 42.1919 234.8C42.5302 235.532 42.6993 236.418 42.6993 237.46C42.6993 238.502 42.5302 239.389 42.1919 240.12C41.8537 240.852 41.3875 241.409 40.7934 241.793C40.1992 242.177 39.5319 242.369 38.7915 242.369ZM38.7915 241.149C39.2942 241.149 39.733 241.012 40.1078 240.737C40.4917 240.463 40.7888 240.052 40.999 239.503C41.2184 238.955 41.3281 238.274 41.3281 237.46C41.3281 236.647 41.2184 235.966 40.999 235.417C40.7888 234.869 40.4917 234.458 40.1078 234.183C39.733 233.909 39.2942 233.772 38.7915 233.772C38.2887 233.772 37.8454 233.909 37.4615 234.183C37.0775 234.458 36.7759 234.869 36.5565 235.417C36.3463 235.966 36.2411 236.647 36.2411 237.46C36.2411 238.274 36.3463 238.955 36.5565 239.503C36.7759 240.052 37.0775 240.463 37.4615 240.737C37.8454 241.012 38.2887 241.149 38.7915 241.149ZM47.937 242.369C47.1874 242.369 46.5155 242.177 45.9214 241.793C45.3363 241.409 44.8701 240.852 44.5228 240.12C44.1846 239.389 44.0155 238.502 44.0155 237.46C44.0155 236.418 44.1846 235.532 44.5228 234.8C44.8701 234.069 45.3363 233.511 45.9214 233.128C46.5155 232.744 47.1874 232.552 47.937 232.552C48.6774 232.552 49.3447 232.744 49.9388 233.128C50.533 233.511 50.9992 234.069 51.3374 234.8C51.6756 235.532 51.8447 236.418 51.8447 237.46C51.8447 238.502 51.6756 239.389 51.3374 240.12C50.9992 240.852 50.533 241.409 49.9388 241.793C49.3447 242.177 48.6774 242.369 47.937 242.369ZM47.937 241.149C48.4397 241.149 48.8785 241.012 49.2533 240.737C49.6372 240.463 49.9343 240.052 50.1445 239.503C50.3639 238.955 50.4736 238.274 50.4736 237.46C50.4736 236.647 50.3639 235.966 50.1445 235.417C49.9343 234.869 49.6372 234.458 49.2533 234.183C48.8785 233.909 48.4397 233.772 47.937 233.772C47.4342 233.772 46.9909 233.909 46.6069 234.183C46.223 234.458 45.9214 234.869 45.702 235.417C45.4917 235.966 45.3866 236.647 45.3866 237.46C45.3866 238.274 45.4917 238.955 45.702 239.503C45.9214 240.052 46.223 240.463 46.6069 240.737C46.9909 241.012 47.4342 241.149 47.937 241.149ZM57.0824 242.369C56.3329 242.369 55.661 242.177 55.0668 241.793C54.4818 241.409 54.0156 240.852 53.6683 240.12C53.33 239.389 53.1609 238.502 53.1609 237.46C53.1609 236.418 53.33 235.532 53.6683 234.8C54.0156 234.069 54.4818 233.511 55.0668 233.128C55.661 232.744 56.3329 232.552 57.0824 232.552C57.8228 232.552 58.4901 232.744 59.0843 233.128C59.6785 233.511 60.1447 234.069 60.4829 234.8C60.8211 235.532 60.9902 236.418 60.9902 237.46C60.9902 238.502 60.8211 239.389 60.4829 240.12C60.1447 240.852 59.6785 241.409 59.0843 241.793C58.4901 242.177 57.8228 242.369 57.0824 242.369ZM57.0824 241.149C57.5852 241.149 58.0239 241.012 58.3987 240.737C58.7827 240.463 59.0797 240.052 59.29 239.503C59.5094 238.955 59.6191 238.274 59.6191 237.46C59.6191 236.647 59.5094 235.966 59.29 235.417C59.0797 234.869 58.7827 234.458 58.3987 234.183C58.0239 233.909 57.5852 233.772 57.0824 233.772C56.5797 233.772 56.1363 233.909 55.7524 234.183C55.3685 234.458 55.0668 234.869 54.8474 235.417C54.6372 235.966 54.5321 236.647 54.5321 237.46C54.5321 238.274 54.6372 238.955 54.8474 239.503C55.0668 240.052 55.3685 240.463 55.7524 240.737C56.1363 241.012 56.5797 241.149 57.0824 241.149ZM66.2279 242.369C65.4783 242.369 64.8065 242.177 64.2123 241.793C63.6273 241.409 63.1611 240.852 62.8137 240.12C62.4755 239.389 62.3064 238.502 62.3064 237.46C62.3064 236.418 62.4755 235.532 62.8137 234.8C63.1611 234.069 63.6273 233.511 64.2123 233.128C64.8065 232.744 65.4783 232.552 66.2279 232.552C66.9683 232.552 67.6356 232.744 68.2298 233.128C68.8239 233.511 69.2901 234.069 69.6284 234.8C69.9666 235.532 70.1357 236.418 70.1357 237.46C70.1357 238.502 69.9666 239.389 69.6284 240.12C69.2901 240.852 68.8239 241.409 68.2298 241.793C67.6356 242.177 66.9683 242.369 66.2279 242.369ZM66.2279 241.149C66.7307 241.149 67.1694 241.012 67.5442 240.737C67.9281 240.463 68.2252 240.052 68.4355 239.503C68.6548 238.955 68.7645 238.274 68.7645 237.46C68.7645 236.647 68.6548 235.966 68.4355 235.417C68.2252 234.869 67.9281 234.458 67.5442 234.183C67.1694 233.909 66.7307 233.772 66.2279 233.772C65.7251 233.772 65.2818 233.909 64.8979 234.183C64.514 234.458 64.2123 234.869 63.9929 235.417C63.7827 235.966 63.6776 236.647 63.6776 237.46C63.6776 238.274 63.7827 238.955 63.9929 239.503C64.2123 240.052 64.514 240.463 64.8979 240.737C65.2818 241.012 65.7251 241.149 66.2279 241.149Z" fill="#5C6F88"/>
<path d="M32.8939 292.506C32.2175 292.506 31.5593 292.401 30.9195 292.191C30.2887 291.98 29.7723 291.697 29.3701 291.341L30.0008 290.257C30.3207 290.559 30.7366 290.806 31.2485 290.998C31.7604 291.19 32.3043 291.286 32.8802 291.286C33.6115 291.286 34.1737 291.13 34.5667 290.82C34.9598 290.509 35.1563 290.093 35.1563 289.572C35.1563 289.215 35.0695 288.904 34.8958 288.639C34.7221 288.374 34.4205 288.173 33.9908 288.036C33.5704 287.89 32.9899 287.817 32.2495 287.817H30.0693L30.5767 282.798H35.9927V283.991H31.084L31.797 283.319L31.3994 287.282L30.6864 286.624H32.5374C33.4972 286.624 34.2696 286.747 34.8547 286.994C35.4397 287.241 35.8647 287.584 36.1298 288.022C36.3949 288.452 36.5275 288.95 36.5275 289.517C36.5275 290.065 36.3949 290.568 36.1298 291.025C35.8647 291.473 35.4625 291.834 34.9232 292.108C34.393 292.374 33.7166 292.506 32.8939 292.506ZM41.59 292.506C40.8405 292.506 40.1686 292.314 39.5744 291.93C38.9894 291.546 38.5232 290.989 38.1759 290.257C37.8376 289.526 37.6685 288.639 37.6685 287.597C37.6685 286.555 37.8376 285.669 38.1759 284.937C38.5232 284.206 38.9894 283.648 39.5744 283.264C40.1686 282.881 40.8405 282.689 41.59 282.689C42.3304 282.689 42.9977 282.881 43.5919 283.264C44.1861 283.648 44.6523 284.206 44.9905 284.937C45.3287 285.669 45.4978 286.555 45.4978 287.597C45.4978 288.639 45.3287 289.526 44.9905 290.257C44.6523 290.989 44.1861 291.546 43.5919 291.93C42.9977 292.314 42.3304 292.506 41.59 292.506ZM41.59 291.286C42.0928 291.286 42.5315 291.149 42.9063 290.874C43.2902 290.6 43.5873 290.189 43.7976 289.64C44.017 289.092 44.1266 288.411 44.1266 287.597C44.1266 286.784 44.017 286.103 43.7976 285.554C43.5873 285.006 43.2902 284.595 42.9063 284.32C42.5315 284.046 42.0928 283.909 41.59 283.909C41.0873 283.909 40.6439 284.046 40.26 284.32C39.8761 284.595 39.5744 285.006 39.355 285.554C39.1448 286.103 39.0397 286.784 39.0397 287.597C39.0397 288.411 39.1448 289.092 39.355 289.64C39.5744 290.189 39.8761 290.6 40.26 290.874C40.6439 291.149 41.0873 291.286 41.59 291.286ZM50.7355 292.506C49.9859 292.506 49.3141 292.314 48.7199 291.93C48.1349 291.546 47.6687 290.989 47.3213 290.257C46.9831 289.526 46.814 288.639 46.814 287.597C46.814 286.555 46.9831 285.669 47.3213 284.937C47.6687 284.206 48.1349 283.648 48.7199 283.264C49.3141 282.881 49.9859 282.689 50.7355 282.689C51.4759 282.689 52.1432 282.881 52.7374 283.264C53.3315 283.648 53.7977 284.206 54.1359 284.937C54.4742 285.669 54.6433 286.555 54.6433 287.597C54.6433 288.639 54.4742 289.526 54.1359 290.257C53.7977 290.989 53.3315 291.546 52.7374 291.93C52.1432 292.314 51.4759 292.506 50.7355 292.506ZM50.7355 291.286C51.2382 291.286 51.677 291.149 52.0518 290.874C52.4357 290.6 52.7328 290.189 52.943 289.64C53.1624 289.092 53.2721 288.411 53.2721 287.597C53.2721 286.784 53.1624 286.103 52.943 285.554C52.7328 285.006 52.4357 284.595 52.0518 284.32C51.677 284.046 51.2382 283.909 50.7355 283.909C50.2327 283.909 49.7894 284.046 49.4055 284.32C49.0216 284.595 48.7199 285.006 48.5005 285.554C48.2903 286.103 48.1851 286.784 48.1851 287.597C48.1851 288.411 48.2903 289.092 48.5005 289.64C48.7199 290.189 49.0216 290.6 49.4055 290.874C49.7894 291.149 50.2327 291.286 50.7355 291.286ZM59.881 292.506C59.1314 292.506 58.4595 292.314 57.8654 291.93C57.2803 291.546 56.8142 290.989 56.4668 290.257C56.1286 289.526 55.9595 288.639 55.9595 287.597C55.9595 286.555 56.1286 285.669 56.4668 284.937C56.8142 284.206 57.2803 283.648 57.8654 283.264C58.4595 282.881 59.1314 282.689 59.881 282.689C60.6214 282.689 61.2887 282.881 61.8828 283.264C62.477 283.648 62.9432 284.206 63.2814 284.937C63.6196 285.669 63.7887 286.555 63.7887 287.597C63.7887 288.639 63.6196 289.526 63.2814 290.257C62.9432 290.989 62.477 291.546 61.8828 291.93C61.2887 292.314 60.6214 292.506 59.881 292.506ZM59.881 291.286C60.3837 291.286 60.8225 291.149 61.1973 290.874C61.5812 290.6 61.8783 290.189 62.0885 289.64C62.3079 289.092 62.4176 288.411 62.4176 287.597C62.4176 286.784 62.3079 286.103 62.0885 285.554C61.8783 285.006 61.5812 284.595 61.1973 284.32C60.8225 284.046 60.3837 283.909 59.881 283.909C59.3782 283.909 58.9349 284.046 58.5509 284.32C58.167 284.595 57.8654 285.006 57.646 285.554C57.4357 286.103 57.3306 286.784 57.3306 287.597C57.3306 288.411 57.4357 289.092 57.646 289.64C57.8654 290.189 58.167 290.6 58.5509 290.874C58.9349 291.149 59.3782 291.286 59.881 291.286Z" fill="#5C6F88"/>
<path d="M33.7166 342.643C32.967 342.643 32.2952 342.451 31.701 342.067C31.116 341.683 30.6498 341.126 30.3024 340.394C29.9642 339.663 29.7951 338.776 29.7951 337.734C29.7951 336.692 29.9642 335.806 30.3024 335.074C30.6498 334.343 31.116 333.785 31.701 333.401C32.2952 333.018 32.967 332.826 33.7166 332.826C34.457 332.826 35.1243 333.018 35.7185 333.401C36.3127 333.785 36.7788 334.343 37.1171 335.074C37.4553 335.806 37.6244 336.692 37.6244 337.734C37.6244 338.776 37.4553 339.663 37.1171 340.394C36.7788 341.126 36.3127 341.683 35.7185 342.067C35.1243 342.451 34.457 342.643 33.7166 342.643ZM33.7166 341.423C34.2194 341.423 34.6581 341.286 35.0329 341.011C35.4168 340.737 35.7139 340.326 35.9242 339.777C36.1435 339.229 36.2532 338.548 36.2532 337.734C36.2532 336.921 36.1435 336.24 35.9242 335.691C35.7139 335.143 35.4168 334.731 35.0329 334.457C34.6581 334.183 34.2194 334.046 33.7166 334.046C33.2139 334.046 32.7705 334.183 32.3866 334.457C32.0027 334.731 31.701 335.143 31.4816 335.691C31.2714 336.24 31.1663 336.921 31.1663 337.734C31.1663 338.548 31.2714 339.229 31.4816 339.777C31.701 340.326 32.0027 340.737 32.3866 341.011C32.7705 341.286 33.2139 341.423 33.7166 341.423Z" fill="#5C6F88"/>
<rect x="102.919" y="293.255" width="22.2812" height="22.2812" fill="#04B4FC"/>
<rect x="102.919" y="204.13" width="22.2812" height="22.2812" fill="#6C11D9"/>
<rect x="102.919" y="181.848" width="22.2812" height="22.2812" fill="#AD69FF"/>
<rect x="102.919" y="270.973" width="22.2812" height="22.2812" fill="#04B4FC"/>
<rect x="102.919" y="248.692" width="22.2812" height="22.2812" fill="#51CCFF"/>
<rect x="102.919" y="226.411" width="22.2812" height="22.2812" fill="#8EDEFF"/>
<path d="M104.234 342.643C103.667 342.643 103.137 342.524 102.643 342.287C102.15 342.049 101.747 341.706 101.437 341.258L102.232 340.326C102.497 340.692 102.794 340.975 103.123 341.176C103.461 341.368 103.832 341.464 104.234 341.464C105.331 341.464 105.879 340.815 105.879 339.517V334.128H102.41V332.935H107.237V339.448C107.237 340.518 106.981 341.318 106.469 341.848C105.966 342.378 105.221 342.643 104.234 342.643ZM114.349 342.533V340.998L114.28 340.71V338.091C114.28 337.533 114.116 337.104 113.787 336.802C113.467 336.491 112.982 336.336 112.333 336.336C111.904 336.336 111.483 336.409 111.072 336.555C110.66 336.692 110.313 336.88 110.03 337.117L109.481 336.13C109.856 335.829 110.304 335.6 110.825 335.445C111.355 335.28 111.908 335.198 112.484 335.198C113.48 335.198 114.248 335.44 114.787 335.924C115.327 336.409 115.596 337.149 115.596 338.146V342.533H114.349ZM111.963 342.616C111.424 342.616 110.948 342.524 110.537 342.341C110.135 342.159 109.824 341.907 109.605 341.587C109.385 341.258 109.275 340.888 109.275 340.477C109.275 340.084 109.367 339.727 109.55 339.407C109.742 339.087 110.048 338.831 110.468 338.639C110.898 338.447 111.474 338.351 112.196 338.351H114.5V339.298H112.251C111.593 339.298 111.149 339.407 110.921 339.627C110.692 339.846 110.578 340.111 110.578 340.422C110.578 340.778 110.72 341.066 111.003 341.286C111.286 341.496 111.68 341.601 112.182 341.601C112.676 341.601 113.106 341.491 113.471 341.272C113.846 341.053 114.116 340.733 114.28 340.312L114.541 341.217C114.367 341.647 114.061 341.99 113.622 342.246C113.183 342.492 112.63 342.616 111.963 342.616ZM121.913 335.198C122.507 335.198 123.028 335.312 123.476 335.541C123.933 335.769 124.289 336.116 124.545 336.583C124.801 337.049 124.929 337.638 124.929 338.351V342.533H123.613V338.502C123.613 337.798 123.439 337.268 123.092 336.912C122.754 336.555 122.274 336.377 121.652 336.377C121.186 336.377 120.779 336.468 120.432 336.651C120.085 336.834 119.815 337.104 119.623 337.46C119.44 337.817 119.349 338.26 119.349 338.79V342.533H118.032V335.266H119.294V337.227L119.088 336.706C119.326 336.231 119.692 335.861 120.185 335.595C120.679 335.33 121.255 335.198 121.913 335.198Z" fill="#5C6F88"/>
<rect x="159.77" y="226.411" width="22.2812" height="22.2812" fill="#6C11D9"/>
<rect x="159.77" y="204.13" width="22.2812" height="22.2812" fill="#AD69FF"/>
<rect x="159.77" y="293.254" width="22.2812" height="22.2812" fill="#04B4FC"/>
<rect x="159.77" y="270.973" width="22.2812" height="22.2812" fill="#51CCFF"/>
<rect x="159.77" y="248.692" width="22.2812" height="22.2812" fill="#8EDEFF"/>
<path d="M160.085 337.474H165.034V338.653H160.085V337.474ZM160.222 342.533H158.851V332.935H165.624V334.128H160.222V342.533ZM170.371 342.615C169.594 342.615 168.908 342.456 168.314 342.136C167.729 341.816 167.272 341.377 166.943 340.819C166.623 340.262 166.463 339.622 166.463 338.9C166.463 338.178 166.618 337.538 166.929 336.98C167.249 336.422 167.683 335.988 168.232 335.677C168.789 335.358 169.415 335.198 170.11 335.198C170.814 335.198 171.435 335.353 171.975 335.664C172.514 335.975 172.935 336.413 173.236 336.98C173.547 337.538 173.702 338.191 173.702 338.941C173.702 338.996 173.698 339.06 173.689 339.133C173.689 339.206 173.684 339.274 173.675 339.338H167.491V338.392H172.989L172.455 338.721C172.464 338.255 172.368 337.839 172.167 337.474C171.966 337.108 171.687 336.825 171.33 336.624C170.983 336.413 170.576 336.308 170.11 336.308C169.653 336.308 169.246 336.413 168.89 336.624C168.533 336.825 168.254 337.113 168.053 337.487C167.852 337.853 167.752 338.273 167.752 338.749V338.968C167.752 339.453 167.861 339.887 168.081 340.271C168.309 340.646 168.625 340.938 169.027 341.148C169.429 341.359 169.891 341.464 170.412 341.464C170.841 341.464 171.23 341.391 171.577 341.244C171.934 341.098 172.244 340.879 172.51 340.586L173.236 341.436C172.907 341.82 172.496 342.113 172.002 342.314C171.518 342.515 170.974 342.615 170.371 342.615ZM179.383 342.615C178.762 342.615 178.199 342.478 177.697 342.204C177.203 341.921 176.81 341.505 176.517 340.956C176.234 340.408 176.092 339.722 176.092 338.9C176.092 338.077 176.239 337.391 176.531 336.843C176.833 336.294 177.23 335.883 177.724 335.609C178.227 335.335 178.78 335.198 179.383 335.198C180.096 335.198 180.727 335.353 181.275 335.664C181.824 335.975 182.258 336.409 182.578 336.966C182.898 337.515 183.058 338.159 183.058 338.9C183.058 339.64 182.898 340.289 182.578 340.847C182.258 341.404 181.824 341.838 181.275 342.149C180.727 342.46 180.096 342.615 179.383 342.615ZM175.53 342.533V332.359H176.847V337.199L176.709 338.886L176.792 340.572V342.533H175.53ZM179.273 341.464C179.74 341.464 180.156 341.359 180.521 341.148C180.896 340.938 181.189 340.641 181.399 340.257C181.618 339.864 181.728 339.412 181.728 338.9C181.728 338.379 181.618 337.931 181.399 337.556C181.189 337.172 180.896 336.875 180.521 336.665C180.156 336.454 179.74 336.349 179.273 336.349C178.816 336.349 178.401 336.454 178.026 336.665C177.66 336.875 177.368 337.172 177.148 337.556C176.938 337.931 176.833 338.379 176.833 338.9C176.833 339.412 176.938 339.864 177.148 340.257C177.368 340.641 177.66 340.938 178.026 341.148C178.401 341.359 178.816 341.464 179.273 341.464Z" fill="#5C6F88"/>
<rect x="217.621" y="226.411" width="22.2812" height="22.2812" fill="#6C11D9"/>
<rect x="217.621" y="204.13" width="22.2812" height="22.2812" fill="#AD69FF"/>
<rect x="217.621" y="181.848" width="22.2812" height="22.2812" fill="#C08BFF"/>
<rect x="217.621" y="293.255" width="22.2812" height="22.2812" fill="#04B4FC"/>
<rect x="217.621" y="270.973" width="22.2812" height="22.2812" fill="#51CCFF"/>
<rect x="217.621" y="248.692" width="22.2812" height="22.2812" fill="#8EDEFF"/>
<path d="M216.702 342.533V332.935H217.826L222.131 340.189H221.528L225.779 332.935H226.903L226.917 342.533H225.6L225.587 335.006H225.902L222.118 341.368H221.487L217.675 335.006H218.018V342.533H216.702ZM234.116 342.533V340.998L234.048 340.71V338.091C234.048 337.533 233.883 337.104 233.554 336.802C233.234 336.491 232.75 336.336 232.101 336.336C231.671 336.336 231.251 336.409 230.839 336.555C230.428 336.692 230.081 336.88 229.797 337.117L229.249 336.13C229.624 335.829 230.071 335.6 230.593 335.445C231.123 335.28 231.676 335.198 232.252 335.198C233.248 335.198 234.016 335.44 234.555 335.924C235.094 336.409 235.364 337.149 235.364 338.146V342.533H234.116ZM231.731 342.616C231.191 342.616 230.716 342.524 230.305 342.341C229.902 342.159 229.592 341.907 229.372 341.587C229.153 341.258 229.043 340.888 229.043 340.477C229.043 340.084 229.135 339.727 229.317 339.407C229.509 339.087 229.816 338.831 230.236 338.639C230.666 338.447 231.242 338.351 231.964 338.351H234.267V339.298H232.019C231.36 339.298 230.917 339.407 230.688 339.627C230.46 339.846 230.346 340.111 230.346 340.422C230.346 340.778 230.487 341.066 230.771 341.286C231.054 341.496 231.447 341.601 231.95 341.601C232.444 341.601 232.873 341.491 233.239 341.272C233.614 341.053 233.883 340.733 234.048 340.312L234.308 341.217C234.135 341.647 233.828 341.99 233.39 342.246C232.951 342.492 232.398 342.616 231.731 342.616ZM237.8 342.533V335.266H239.062V337.241L238.938 336.747C239.139 336.244 239.477 335.861 239.953 335.595C240.428 335.33 241.013 335.198 241.708 335.198V336.473C241.653 336.464 241.598 336.459 241.543 336.459C241.498 336.459 241.452 336.459 241.406 336.459C240.702 336.459 240.145 336.669 239.733 337.09C239.322 337.51 239.116 338.118 239.116 338.914V342.533H237.8Z" fill="#5C6F88"/>
<rect x="274.972" y="204.13" width="22.2812" height="22.2812" fill="#6C11D9"/>
<rect x="274.972" y="181.849" width="22.2812" height="22.2812" fill="#AD69FF"/>
<rect x="274.972" y="159.567" width="22.2812" height="22.2812" fill="#C08BFF"/>
<rect x="274.972" y="293.255" width="22.2812" height="22.2812" fill="#04B4FC"/>
<rect x="274.972" y="270.973" width="22.2812" height="22.2812" fill="#51CCFF"/>
<rect x="274.972" y="248.692" width="22.2812" height="22.2812" fill="#51CCFF"/>
<rect x="274.972" y="226.411" width="22.2812" height="22.2812" fill="#8EDEFF"/>
<path d="M273.099 342.534L277.446 332.936H278.803L283.163 342.534H281.724L277.843 333.703H278.392L274.511 342.534H273.099ZM274.95 340.134L275.32 339.037H280.723L281.12 340.134H274.95ZM288.256 342.616C287.653 342.616 287.1 342.479 286.597 342.204C286.103 341.921 285.706 341.505 285.404 340.957C285.112 340.408 284.965 339.723 284.965 338.9C284.965 338.077 285.107 337.392 285.39 336.843C285.683 336.295 286.076 335.883 286.57 335.609C287.072 335.335 287.635 335.198 288.256 335.198C288.969 335.198 289.6 335.353 290.148 335.664C290.697 335.975 291.131 336.409 291.451 336.967C291.771 337.515 291.931 338.16 291.931 338.9C291.931 339.64 291.771 340.289 291.451 340.847C291.131 341.405 290.697 341.839 290.148 342.15C289.6 342.46 288.969 342.616 288.256 342.616ZM284.403 345.194V335.266H285.665V337.227L285.582 338.914L285.719 340.6V345.194H284.403ZM288.146 341.464C288.613 341.464 289.029 341.359 289.394 341.149C289.769 340.938 290.061 340.641 290.272 340.257C290.491 339.864 290.601 339.412 290.601 338.9C290.601 338.379 290.491 337.931 290.272 337.556C290.061 337.172 289.769 336.875 289.394 336.665C289.029 336.455 288.613 336.35 288.146 336.35C287.689 336.35 287.273 336.455 286.899 336.665C286.533 336.875 286.24 337.172 286.021 337.556C285.811 337.931 285.706 338.379 285.706 338.9C285.706 339.412 285.811 339.864 286.021 340.257C286.24 340.641 286.533 340.938 286.899 341.149C287.273 341.359 287.689 341.464 288.146 341.464ZM293.749 342.534V335.266H295.011V337.241L294.888 336.747C295.089 336.245 295.427 335.861 295.902 335.596C296.378 335.33 296.963 335.198 297.657 335.198V336.473C297.602 336.464 297.548 336.459 297.493 336.459C297.447 336.459 297.401 336.459 297.356 336.459C296.652 336.459 296.094 336.67 295.683 337.09C295.271 337.511 295.066 338.118 295.066 338.914V342.534H293.749Z" fill="#5C6F88"/>
<rect x="333.323" y="243.55" width="22.2812" height="22.2812" fill="#6C11D9"/>
<rect x="333.323" y="288.113" width="22.2812" height="22.2812" fill="#04B4FC"/>
<rect x="333.323" y="265.832" width="22.2812" height="22.2812" fill="#8EDEFF"/>
<path d="M331.403 342.533V332.935H332.528L336.833 340.189H336.23L340.48 332.935H341.605L341.618 342.533H340.302L340.288 335.006H340.604L336.819 341.368H336.189L332.377 335.006H332.72V342.533H331.403ZM348.818 342.533V340.998L348.749 340.71V338.091C348.749 337.533 348.585 337.104 348.256 336.802C347.936 336.491 347.451 336.336 346.802 336.336C346.373 336.336 345.952 336.409 345.541 336.555C345.13 336.692 344.782 336.88 344.499 337.117L343.95 336.13C344.325 335.829 344.773 335.6 345.294 335.445C345.824 335.28 346.377 335.198 346.953 335.198C347.95 335.198 348.717 335.44 349.257 335.924C349.796 336.409 350.066 337.149 350.066 338.146V342.533H348.818ZM346.432 342.616C345.893 342.616 345.418 342.524 345.006 342.341C344.604 342.159 344.293 341.907 344.074 341.587C343.854 341.258 343.745 340.888 343.745 340.477C343.745 340.084 343.836 339.727 344.019 339.407C344.211 339.087 344.517 338.831 344.938 338.639C345.367 338.447 345.943 338.351 346.665 338.351H348.969V339.298H346.72C346.062 339.298 345.619 339.407 345.39 339.627C345.162 339.846 345.047 340.111 345.047 340.422C345.047 340.778 345.189 341.066 345.472 341.286C345.756 341.496 346.149 341.601 346.652 341.601C347.145 341.601 347.575 341.491 347.94 341.272C348.315 341.053 348.585 340.733 348.749 340.312L349.01 341.217C348.836 341.647 348.53 341.99 348.091 342.246C347.653 342.492 347.1 342.616 346.432 342.616ZM352.683 345.276C352.336 345.276 351.998 345.216 351.669 345.098C351.339 344.988 351.056 344.823 350.818 344.604L351.381 343.617C351.563 343.79 351.765 343.923 351.984 344.014C352.203 344.106 352.436 344.151 352.683 344.151C353.003 344.151 353.268 344.069 353.478 343.905C353.689 343.74 353.885 343.448 354.068 343.027L354.521 342.026L354.658 341.862L357.51 335.266H358.799L355.275 343.26C355.064 343.772 354.827 344.174 354.562 344.467C354.306 344.759 354.022 344.965 353.712 345.084C353.401 345.212 353.058 345.276 352.683 345.276ZM354.411 342.767L351.093 335.266H352.464L355.288 341.738L354.411 342.767Z" fill="#5C6F88"/>
<rect x="391.674" y="241.836" width="22.2812" height="22.2812" fill="#6C11D9"/>
<rect x="391.674" y="219.555" width="22.2812" height="22.2812" fill="#AD69FF"/>
<rect x="391.674" y="286.399" width="22.2812" height="22.2812" fill="#04B4FC"/>
<rect x="391.674" y="264.117" width="22.2812" height="22.2812" fill="#8EDEFF"/>
<path d="M392.488 342.643C391.922 342.643 391.392 342.524 390.898 342.287C390.404 342.049 390.002 341.706 389.691 341.258L390.487 340.326C390.752 340.692 391.049 340.975 391.378 341.176C391.716 341.368 392.086 341.464 392.488 341.464C393.585 341.464 394.134 340.815 394.134 339.517V334.128H390.665V332.935H395.491V339.448C395.491 340.518 395.235 341.318 394.723 341.848C394.221 342.378 393.476 342.643 392.488 342.643ZM401.15 342.616C400.528 342.616 399.98 342.501 399.505 342.273C399.038 342.044 398.673 341.697 398.408 341.231C398.152 340.756 398.024 340.161 398.024 339.448V335.266H399.34V339.298C399.34 340.011 399.509 340.545 399.847 340.902C400.195 341.258 400.679 341.437 401.301 341.437C401.758 341.437 402.155 341.345 402.494 341.162C402.832 340.97 403.092 340.696 403.275 340.34C403.458 339.974 403.549 339.535 403.549 339.023V335.266H404.866V342.533H403.618V340.573L403.824 341.094C403.586 341.578 403.23 341.953 402.754 342.218C402.279 342.483 401.744 342.616 401.15 342.616ZM411.252 335.198C411.846 335.198 412.367 335.312 412.815 335.541C413.272 335.769 413.629 336.116 413.885 336.583C414.141 337.049 414.269 337.638 414.269 338.351V342.533H412.952V338.502C412.952 337.798 412.779 337.268 412.431 336.912C412.093 336.555 411.613 336.377 410.991 336.377C410.525 336.377 410.119 336.468 409.771 336.651C409.424 336.834 409.154 337.104 408.962 337.46C408.779 337.817 408.688 338.26 408.688 338.79V342.533H407.372V335.266H408.633V337.227L408.427 336.706C408.665 336.231 409.031 335.861 409.524 335.595C410.018 335.33 410.594 335.198 411.252 335.198Z" fill="#5C6F88"/>
<rect x="446.666" y="214.413" width="22.2812" height="22.2812" fill="#6C11D9"/>
<rect x="446.666" y="192.132" width="22.2812" height="22.2812" fill="#AD69FF"/>
<rect x="446.666" y="281.257" width="22.2812" height="22.2812" fill="#04B4FC"/>
<rect x="446.666" y="258.976" width="22.2812" height="22.2812" fill="#51CCFF"/>
<rect x="446.666" y="236.694" width="22.2812" height="22.2812" fill="#8EDEFF"/>
<path d="M449.339 342.643C448.773 342.643 448.242 342.524 447.749 342.287C447.255 342.049 446.853 341.706 446.542 341.258L447.337 340.326C447.602 340.692 447.9 340.975 448.229 341.176C448.567 341.368 448.937 341.464 449.339 341.464C450.436 341.464 450.985 340.815 450.985 339.517V334.128H447.516V332.935H452.342V339.448C452.342 340.518 452.086 341.318 451.574 341.848C451.071 342.378 450.327 342.643 449.339 342.643ZM458.001 342.616C457.379 342.616 456.831 342.501 456.355 342.273C455.889 342.044 455.524 341.697 455.258 341.231C455.003 340.756 454.875 340.161 454.875 339.448V335.266H456.191V339.298C456.191 340.011 456.36 340.545 456.698 340.902C457.046 341.258 457.53 341.437 458.152 341.437C458.609 341.437 459.006 341.345 459.345 341.162C459.683 340.97 459.943 340.696 460.126 340.34C460.309 339.974 460.4 339.535 460.4 339.023V335.266H461.717V342.533H460.469V340.573L460.675 341.094C460.437 341.578 460.08 341.953 459.605 342.218C459.13 342.483 458.595 342.616 458.001 342.616ZM464.222 342.533V332.36H465.539V342.533H464.222Z" fill="#5C6F88"/>
<rect x="503.157" y="190.418" width="22.2812" height="22.2812" fill="#6C11D9"/>
<rect x="503.157" y="168.137" width="22.2812" height="22.2812" fill="#AD69FF"/>
<rect x="503.157" y="145.856" width="22.2812" height="22.2812" fill="#C08BFF"/>
<rect x="503.157" y="279.543" width="22.2812" height="22.2812" fill="#04B4FC"/>
<rect x="503.157" y="257.262" width="22.2812" height="22.2812" fill="#51CCFF"/>
<rect x="503.157" y="234.981" width="22.2812" height="22.2812" fill="#51CCFF"/>
<rect x="503.157" y="212.699" width="22.2812" height="22.2812" fill="#8EDEFF"/>
<path d="M499.784 342.533L504.13 332.935H505.488L509.848 342.533H508.408L504.528 333.703H505.077L501.196 342.533H499.784ZM501.635 340.134L502.005 339.037H507.407L507.805 340.134H501.635ZM514.012 342.616C513.39 342.616 512.842 342.501 512.366 342.273C511.9 342.044 511.535 341.697 511.269 341.231C511.013 340.756 510.886 340.161 510.886 339.448V335.266H512.202V339.298C512.202 340.011 512.371 340.545 512.709 340.902C513.057 341.258 513.541 341.437 514.163 341.437C514.62 341.437 515.017 341.345 515.355 341.162C515.694 340.97 515.954 340.696 516.137 340.34C516.32 339.974 516.411 339.535 516.411 339.023V335.266H517.728V342.533H516.48V340.573L516.685 341.094C516.448 341.578 516.091 341.953 515.616 342.218C515.141 342.483 514.606 342.616 514.012 342.616ZM523.415 345.276C522.747 345.276 522.098 345.18 521.467 344.988C520.846 344.805 520.339 344.54 519.946 344.193L520.576 343.178C520.914 343.47 521.33 343.699 521.824 343.863C522.318 344.037 522.834 344.124 523.373 344.124C524.233 344.124 524.863 343.923 525.266 343.521C525.668 343.118 525.869 342.506 525.869 341.683V340.148L526.006 338.708L525.937 337.255V335.266H527.185V341.546C527.185 342.826 526.865 343.767 526.225 344.371C525.586 344.974 524.649 345.276 523.415 345.276ZM523.25 342.232C522.546 342.232 521.915 342.086 521.358 341.793C520.809 341.491 520.371 341.075 520.041 340.545C519.722 340.015 519.562 339.403 519.562 338.708C519.562 338.004 519.722 337.392 520.041 336.871C520.371 336.34 520.809 335.929 521.358 335.637C521.915 335.344 522.546 335.198 523.25 335.198C523.872 335.198 524.438 335.326 524.95 335.582C525.462 335.829 525.869 336.212 526.171 336.733C526.481 337.255 526.637 337.913 526.637 338.708C526.637 339.494 526.481 340.148 526.171 340.669C525.869 341.19 525.462 341.583 524.95 341.848C524.438 342.104 523.872 342.232 523.25 342.232ZM523.401 341.08C523.885 341.08 524.315 340.979 524.69 340.778C525.064 340.577 525.357 340.298 525.567 339.942C525.787 339.585 525.896 339.174 525.896 338.708C525.896 338.242 525.787 337.83 525.567 337.474C525.357 337.117 525.064 336.843 524.69 336.651C524.315 336.45 523.885 336.35 523.401 336.35C522.916 336.35 522.482 336.45 522.098 336.651C521.723 336.843 521.426 337.117 521.207 337.474C520.997 337.83 520.892 338.242 520.892 338.708C520.892 339.174 520.997 339.585 521.207 339.942C521.426 340.298 521.723 340.577 522.098 340.778C522.482 340.979 522.916 341.08 523.401 341.08Z" fill="#5C6F88"/>
<rect x="559.649" y="281.257" width="22.2812" height="22.2812" fill="#04B4FC"/>
<rect x="559.649" y="192.132" width="22.2812" height="22.2812" fill="#6C11D9"/>
<rect x="559.649" y="169.851" width="22.2812" height="22.2812" fill="#AD69FF"/>
<rect x="559.649" y="258.976" width="22.2812" height="22.2812" fill="#04B4FC"/>
<rect x="559.649" y="236.694" width="22.2812" height="22.2812" fill="#51CCFF"/>
<rect x="559.649" y="214.413" width="22.2812" height="22.2812" fill="#8EDEFF"/>
<path d="M563.886 342.643C563.154 342.643 562.455 342.533 561.788 342.314C561.12 342.085 560.595 341.793 560.211 341.436L560.718 340.367C561.084 340.687 561.55 340.952 562.117 341.162C562.683 341.372 563.273 341.477 563.886 341.477C564.443 341.477 564.896 341.413 565.243 341.285C565.59 341.157 565.846 340.984 566.011 340.764C566.175 340.536 566.258 340.28 566.258 339.997C566.258 339.667 566.148 339.402 565.929 339.201C565.718 339 565.44 338.84 565.092 338.721C564.754 338.593 564.379 338.484 563.968 338.392C563.556 338.301 563.141 338.196 562.72 338.077C562.309 337.949 561.929 337.789 561.582 337.597C561.244 337.405 560.97 337.149 560.759 336.829C560.549 336.5 560.444 336.08 560.444 335.568C560.444 335.074 560.572 334.622 560.828 334.21C561.093 333.79 561.495 333.456 562.034 333.209C562.583 332.953 563.278 332.825 564.119 332.825C564.676 332.825 565.229 332.899 565.778 333.045C566.326 333.191 566.802 333.401 567.204 333.676L566.751 334.772C566.34 334.498 565.906 334.302 565.449 334.183C564.992 334.055 564.548 333.991 564.119 333.991C563.579 333.991 563.136 334.059 562.789 334.197C562.441 334.334 562.185 334.517 562.021 334.745C561.865 334.974 561.788 335.23 561.788 335.513C561.788 335.851 561.893 336.121 562.103 336.322C562.322 336.523 562.601 336.683 562.939 336.802C563.287 336.921 563.666 337.03 564.078 337.131C564.489 337.222 564.9 337.327 565.312 337.446C565.732 337.565 566.111 337.72 566.45 337.912C566.797 338.104 567.076 338.36 567.286 338.68C567.496 339 567.601 339.412 567.601 339.914C567.601 340.399 567.469 340.851 567.204 341.272C566.939 341.683 566.527 342.017 565.97 342.273C565.421 342.519 564.727 342.643 563.886 342.643ZM572.648 342.615C571.871 342.615 571.186 342.456 570.592 342.136C570.007 341.816 569.55 341.377 569.221 340.819C568.901 340.262 568.741 339.622 568.741 338.9C568.741 338.178 568.896 337.538 569.207 336.98C569.527 336.422 569.961 335.988 570.509 335.677C571.067 335.358 571.693 335.198 572.388 335.198C573.092 335.198 573.713 335.353 574.253 335.664C574.792 335.975 575.213 336.413 575.514 336.98C575.825 337.538 575.98 338.191 575.98 338.941C575.98 338.996 575.976 339.06 575.967 339.133C575.967 339.206 575.962 339.274 575.953 339.338H569.769V338.392H575.267L574.733 338.721C574.742 338.255 574.646 337.839 574.445 337.474C574.244 337.108 573.965 336.825 573.608 336.624C573.261 336.413 572.854 336.308 572.388 336.308C571.931 336.308 571.524 336.413 571.168 336.624C570.811 336.825 570.532 337.113 570.331 337.487C570.13 337.853 570.03 338.273 570.03 338.749V338.968C570.03 339.453 570.139 339.887 570.359 340.271C570.587 340.646 570.903 340.938 571.305 341.148C571.707 341.359 572.169 341.464 572.69 341.464C573.119 341.464 573.508 341.391 573.855 341.244C574.212 341.098 574.522 340.879 574.787 340.586L575.514 341.436C575.185 341.82 574.774 342.113 574.28 342.314C573.796 342.515 573.252 342.615 572.648 342.615ZM581.661 342.615C581.058 342.615 580.505 342.478 580.002 342.204C579.508 341.921 579.111 341.505 578.809 340.956C578.517 340.408 578.37 339.722 578.37 338.9C578.37 338.077 578.512 337.391 578.795 336.843C579.088 336.294 579.481 335.883 579.975 335.609C580.477 335.335 581.04 335.198 581.661 335.198C582.374 335.198 583.005 335.353 583.553 335.664C584.102 335.975 584.536 336.409 584.856 336.966C585.176 337.515 585.336 338.159 585.336 338.9C585.336 339.64 585.176 340.289 584.856 340.847C584.536 341.404 584.102 341.838 583.553 342.149C583.005 342.46 582.374 342.615 581.661 342.615ZM577.808 345.193V335.266H579.07V337.227L578.987 338.913L579.124 340.6V345.193H577.808ZM581.551 341.464C582.018 341.464 582.434 341.359 582.799 341.148C583.174 340.938 583.466 340.641 583.677 340.257C583.896 339.864 584.006 339.412 584.006 338.9C584.006 338.379 583.896 337.931 583.677 337.556C583.466 337.172 583.174 336.875 582.799 336.665C582.434 336.454 582.018 336.349 581.551 336.349C581.094 336.349 580.678 336.454 580.304 336.665C579.938 336.875 579.646 337.172 579.426 337.556C579.216 337.931 579.111 338.379 579.111 338.9C579.111 339.412 579.216 339.864 579.426 340.257C579.646 340.641 579.938 340.938 580.304 341.148C580.678 341.359 581.094 341.464 581.551 341.464Z" fill="#5C6F88"/>
<rect x="617.5" y="216.127" width="22.2812" height="22.2812" fill="#6C11D9"/>
<rect x="617.5" y="282.971" width="22.2812" height="22.2812" fill="#04B4FC"/>
<rect x="617.5" y="260.69" width="22.2812" height="22.2812" fill="#51CCFF"/>
<rect x="617.5" y="238.409" width="22.2812" height="22.2812" fill="#8EDEFF"/>
<path d="M623.272 342.643C622.541 342.643 621.86 342.52 621.229 342.273C620.607 342.026 620.068 341.683 619.611 341.245C619.154 340.797 618.798 340.276 618.542 339.681C618.286 339.087 618.158 338.438 618.158 337.734C618.158 337.031 618.286 336.382 618.542 335.787C618.798 335.193 619.154 334.677 619.611 334.238C620.068 333.79 620.607 333.443 621.229 333.196C621.851 332.949 622.532 332.826 623.272 332.826C624.003 332.826 624.675 332.949 625.288 333.196C625.909 333.434 626.449 333.776 626.906 334.224C627.372 334.663 627.728 335.18 627.975 335.774C628.231 336.368 628.359 337.021 628.359 337.734C628.359 338.447 628.231 339.101 627.975 339.695C627.728 340.289 627.372 340.81 626.906 341.258C626.449 341.697 625.909 342.04 625.288 342.287C624.675 342.524 624.003 342.643 623.272 342.643ZM623.272 341.423C623.802 341.423 624.291 341.331 624.739 341.149C625.196 340.966 625.589 340.71 625.918 340.381C626.257 340.043 626.517 339.649 626.7 339.202C626.892 338.754 626.988 338.265 626.988 337.734C626.988 337.204 626.892 336.715 626.7 336.267C626.517 335.819 626.257 335.431 625.918 335.102C625.589 334.764 625.196 334.503 624.739 334.32C624.291 334.137 623.802 334.046 623.272 334.046C622.733 334.046 622.235 334.137 621.778 334.32C621.33 334.503 620.937 334.764 620.598 335.102C620.26 335.431 619.995 335.819 619.803 336.267C619.62 336.715 619.529 337.204 619.529 337.734C619.529 338.265 619.62 338.754 619.803 339.202C619.995 339.649 620.26 340.043 620.598 340.381C620.937 340.71 621.33 340.966 621.778 341.149C622.235 341.331 622.733 341.423 623.272 341.423ZM633.43 342.616C632.69 342.616 632.027 342.456 631.442 342.136C630.866 341.816 630.414 341.377 630.085 340.82C629.755 340.262 629.591 339.622 629.591 338.9C629.591 338.178 629.755 337.538 630.085 336.98C630.414 336.423 630.866 335.988 631.442 335.678C632.027 335.358 632.69 335.198 633.43 335.198C634.088 335.198 634.673 335.33 635.185 335.595C635.706 335.851 636.108 336.235 636.392 336.747L635.391 337.392C635.153 337.035 634.861 336.775 634.513 336.61C634.175 336.436 633.81 336.35 633.416 336.35C632.941 336.35 632.516 336.455 632.141 336.665C631.766 336.875 631.469 337.172 631.25 337.556C631.031 337.931 630.921 338.379 630.921 338.9C630.921 339.421 631.031 339.873 631.25 340.257C631.469 340.641 631.766 340.938 632.141 341.149C632.516 341.359 632.941 341.464 633.416 341.464C633.81 341.464 634.175 341.382 634.513 341.217C634.861 341.043 635.153 340.778 635.391 340.422L636.392 341.053C636.108 341.555 635.706 341.944 635.185 342.218C634.673 342.483 634.088 342.616 633.43 342.616ZM640.685 342.616C639.954 342.616 639.387 342.419 638.985 342.026C638.583 341.633 638.382 341.071 638.382 340.34V333.676H639.698V340.285C639.698 340.678 639.794 340.979 639.986 341.19C640.187 341.4 640.47 341.505 640.836 341.505C641.247 341.505 641.59 341.391 641.864 341.162L642.276 342.108C642.075 342.282 641.832 342.41 641.549 342.492C641.275 342.575 640.987 342.616 640.685 342.616ZM637.148 336.35V335.266H641.782V336.35H637.148Z" fill="#5C6F88"/>
<rect x="674.35" y="210.986" width="22.2812" height="22.2812" fill="#6C11D9"/>
<rect x="674.35" y="188.704" width="22.2812" height="22.2812" fill="#AD69FF"/>
<rect x="674.35" y="277.829" width="22.2812" height="22.2812" fill="#04B4FC"/>
<rect x="674.35" y="255.548" width="22.2812" height="22.2812" fill="#51CCFF"/>
<rect x="674.35" y="233.267" width="22.2812" height="22.2812" fill="#8EDEFF"/>
<path d="M675.79 342.534V332.936H676.914L683.263 340.82H682.673V332.936H684.044V342.534H682.92L676.572 334.649H677.161V342.534H675.79ZM689.838 342.616C689.107 342.616 688.458 342.456 687.891 342.136C687.324 341.816 686.876 341.377 686.547 340.82C686.218 340.253 686.053 339.613 686.053 338.9C686.053 338.178 686.218 337.538 686.547 336.98C686.876 336.423 687.324 335.989 687.891 335.678C688.458 335.358 689.107 335.198 689.838 335.198C690.56 335.198 691.204 335.358 691.771 335.678C692.347 335.989 692.795 336.423 693.115 336.98C693.444 337.529 693.608 338.169 693.608 338.9C693.608 339.622 693.444 340.262 693.115 340.82C692.795 341.377 692.347 341.816 691.771 342.136C691.204 342.456 690.56 342.616 689.838 342.616ZM689.838 341.464C690.304 341.464 690.72 341.359 691.086 341.149C691.46 340.938 691.753 340.641 691.963 340.257C692.173 339.864 692.278 339.412 692.278 338.9C692.278 338.379 692.173 337.931 691.963 337.556C691.753 337.172 691.46 336.875 691.086 336.665C690.72 336.455 690.304 336.35 689.838 336.35C689.372 336.35 688.956 336.455 688.59 336.665C688.224 336.875 687.932 337.172 687.713 337.556C687.493 337.931 687.383 338.379 687.383 338.9C687.383 339.412 687.493 339.864 687.713 340.257C687.932 340.641 688.224 340.938 688.59 341.149C688.956 341.359 689.372 341.464 689.838 341.464ZM697.134 342.534L693.953 335.266H695.324L698.149 341.848H697.49L700.37 335.266H701.659L698.478 342.534H697.134Z" fill="#5C6F88"/>
<rect x="733.201" y="228.125" width="22.2812" height="22.2812" fill="#6C11D9"/>
<rect x="733.201" y="272.687" width="22.2812" height="22.2812" fill="#04B4FC"/>
<rect x="733.201" y="250.406" width="22.2812" height="22.2812" fill="#8EDEFF"/>
<path d="M734.641 342.533V332.935H738.686C739.71 332.935 740.61 333.136 741.387 333.539C742.173 333.941 742.781 334.503 743.211 335.225C743.649 335.947 743.869 336.784 743.869 337.734C743.869 338.685 743.649 339.521 743.211 340.244C742.781 340.966 742.173 341.528 741.387 341.93C740.61 342.332 739.71 342.533 738.686 342.533H734.641ZM736.012 341.341H738.604C739.399 341.341 740.084 341.19 740.66 340.888C741.245 340.586 741.698 340.166 742.018 339.627C742.338 339.078 742.498 338.447 742.498 337.734C742.498 337.012 742.338 336.382 742.018 335.842C741.698 335.303 741.245 334.882 740.66 334.581C740.084 334.279 739.399 334.128 738.604 334.128H736.012V341.341ZM749.013 342.616C748.236 342.616 747.55 342.456 746.956 342.136C746.371 341.816 745.914 341.377 745.585 340.82C745.265 340.262 745.105 339.622 745.105 338.9C745.105 338.178 745.261 337.538 745.571 336.98C745.891 336.423 746.325 335.988 746.874 335.678C747.432 335.358 748.058 335.198 748.752 335.198C749.456 335.198 750.078 335.353 750.617 335.664C751.156 335.975 751.577 336.414 751.879 336.98C752.189 337.538 752.345 338.191 752.345 338.941C752.345 338.996 752.34 339.06 752.331 339.133C752.331 339.206 752.327 339.275 752.317 339.339H746.133V338.393H751.632L751.097 338.722C751.106 338.255 751.01 337.84 750.809 337.474C750.608 337.108 750.329 336.825 749.973 336.624C749.625 336.414 749.219 336.308 748.752 336.308C748.295 336.308 747.889 336.414 747.532 336.624C747.176 336.825 746.897 337.113 746.696 337.488C746.495 337.853 746.394 338.274 746.394 338.749V338.968C746.394 339.453 746.504 339.887 746.723 340.271C746.952 340.646 747.267 340.938 747.669 341.149C748.071 341.359 748.533 341.464 749.054 341.464C749.484 341.464 749.872 341.391 750.22 341.245C750.576 341.098 750.887 340.879 751.152 340.586L751.879 341.437C751.55 341.82 751.138 342.113 750.645 342.314C750.16 342.515 749.616 342.616 749.013 342.616ZM757.34 342.616C756.6 342.616 755.937 342.456 755.352 342.136C754.776 341.816 754.323 341.377 753.994 340.82C753.665 340.262 753.501 339.622 753.501 338.9C753.501 338.178 753.665 337.538 753.994 336.98C754.323 336.423 754.776 335.988 755.352 335.678C755.937 335.358 756.6 335.198 757.34 335.198C757.998 335.198 758.583 335.33 759.095 335.595C759.616 335.851 760.018 336.235 760.302 336.747L759.301 337.392C759.063 337.035 758.771 336.775 758.423 336.61C758.085 336.436 757.719 336.35 757.326 336.35C756.851 336.35 756.426 336.455 756.051 336.665C755.676 336.875 755.379 337.172 755.16 337.556C754.94 337.931 754.831 338.379 754.831 338.9C754.831 339.421 754.94 339.873 755.16 340.257C755.379 340.641 755.676 340.938 756.051 341.149C756.426 341.359 756.851 341.464 757.326 341.464C757.719 341.464 758.085 341.382 758.423 341.217C758.771 341.043 759.063 340.778 759.301 340.422L760.302 341.053C760.018 341.555 759.616 341.944 759.095 342.218C758.583 342.483 757.998 342.616 757.34 342.616Z" fill="#5C6F88"/>
<defs>
<clipPath id="clip0_55_95995">
<rect width="15.4255" height="15.4255" fill="white" transform="translate(560.738 34.9963)"/>
</clipPath>
<clipPath id="clip1_55_95995">
<rect width="15.4255" height="15.4255" fill="white" transform="translate(560.738 34.9963)"/>
</clipPath>
<clipPath id="clip2_55_95995">
<rect width="15.4255" height="15.4255" fill="white" transform="translate(669.012 34.9963)"/>
</clipPath>
<clipPath id="clip3_55_95995">
<rect width="15.4255" height="15.4255" fill="white" transform="translate(669.012 34.9963)"/>
</clipPath>
</defs>
</svg>
